solid Template - sentinel logo
facet normal 0.4166630681403368 -0.90906099225953 -5.662355912282939e-18
  outer loop
    vertex 222.93500813627844 129.23276533398078 0.6000000715255932
    vertex 220.57335903901793 128.1503165575905 7.472911178751939e-14
    vertex 222.93500813627844 129.23276533398078 7.261413692560848e-14
  endloop
endfacet
facet normal 0.4166630681403368 -0.90906099225953 -5.662355912282939e-18
  outer loop
    vertex 220.57335903901793 128.1503165575905 7.472911178751939e-14
    vertex 222.93500813627844 129.23276533398078 0.6000000715255932
    vertex 220.57335903901793 128.1503165575905 0.6000000715255932
  endloop
endfacet
facet normal -0.38884369670908325 -0.9213037390185793 -1.8388111421759566e-16
  outer loop
    vertex 211.79510495463202 131.40382956584827 0.600000071525589
    vertex 190.0594494919022 140.57753880263718 8.318901123516309e-14
    vertex 211.79510495463202 131.40382956584827 7.684408664943032e-14
  endloop
endfacet
facet normal -0.38884369670908325 -0.9213037390185793 -1.8388111421759566e-16
  outer loop
    vertex 190.0594494919022 140.57753880263718 8.318901123516309e-14
    vertex 211.79510495463202 131.40382956584827 0.600000071525589
    vertex 190.0594494919022 140.57753880263718 0.6000000715255819
  endloop
endfacet
facet normal -0.9480757221630112 -0.31804469032682364 6.34778841673528e-17
  outer loop
    vertex 224.65340812061496 125.587003838375 0.6000000715255932
    vertex 226.88560796648153 118.93292488265527 7.261413692560848e-14
    vertex 226.88560796648153 118.93292488265527 0.6000000715255932
  endloop
endfacet
facet normal -0.9480757221630112 -0.31804469032682364 6.34778841673528e-17
  outer loop
    vertex 226.88560796648153 118.93292488265527 7.261413692560848e-14
    vertex 224.65340812061496 125.587003838375 0.6000000715255932
    vertex 224.65340812061496 125.587003838375 7.261413692560848e-14
  endloop
endfacet
facet normal 0.870872167815451 -0.49150958009424106 0.0
  outer loop
    vertex 233.9733719780082 131.4912485851129 6.83841872017865e-14
    vertex 226.88560796648153 118.93292488265527 0.6000000715255932
    vertex 226.88560796648153 118.93292488265527 7.261413692560848e-14
  endloop
endfacet
facet normal 0.870872167815451 -0.49150958009424106 0.0
  outer loop
    vertex 226.88560796648153 118.93292488265527 0.6000000715255932
    vertex 233.9733719780082 131.4912485851129 6.83841872017865e-14
    vertex 233.9733719780082 131.4912485851129 0.600000071525596
  endloop
endfacet
facet normal 0.8023753757650212 0.5968197017240141 -1.1911801406233482e-16
  outer loop
    vertex 192.080865064412 135.8009831202078 4.511946372076643e-14
    vertex 200.59259327587225 124.35765927826397 0.6000000715255833
    vertex 200.59259327587236 124.35765927826397 4.511946372076643e-14
  endloop
endfacet
facet normal 0.8023753757650212 0.5968197017240141 -1.1911801406233482e-16
  outer loop
    vertex 200.59259327587225 124.35765927826397 0.6000000715255833
    vertex 192.080865064412 135.8009831202078 4.511946372076643e-14
    vertex 192.08086506441188 135.8009831202078 0.6000000715255819
  endloop
endfacet
facet normal -0.6752488963004936 0.7375899457320207 -0.0
  outer loop
    vertex 231.09695895222532 109.70957101589615 0.6000000715255932
    vertex 243.98640937145512 121.50960600805807 4.511946372076643e-14
    vertex 231.09695895222544 109.70957101589615 4.511946372076643e-14
  endloop
endfacet
facet normal -0.6752488963004936 0.7375899457320207 -0.0
  outer loop
    vertex 243.98640937145512 121.50960600805807 4.511946372076643e-14
    vertex 231.09695895222532 109.70957101589615 0.6000000715255932
    vertex 243.98640937145504 121.50960600805807 0.6000000715255988
  endloop
endfacet
facet normal -0.5257331154337155 -0.8506495702322783 0.0
  outer loop
    vertex 210.9036453914403 115.87679414039653 0.6000000715255861
    vertex 201.71500194069358 121.55571800871954 4.511946372076643e-14
    vertex 210.9036453914404 115.8767941403965 4.511946372076643e-14
  endloop
endfacet
facet normal -0.5257331154337155 -0.8506495702322783 0.0
  outer loop
    vertex 201.71500194069358 121.55571800871954 4.511946372076643e-14
    vertex 210.9036453914403 115.87679414039653 0.6000000715255861
    vertex 201.71500194069344 121.55571800871954 0.6000000715255833
  endloop
endfacet
facet normal -0.7976636953254054 0.6031025030289785 6.216100089319041e-17
  outer loop
    vertex 253.6860439187074 135.86337512936345 0.6000000715256044
    vertex 245.0446735055753 124.43429396688106 1.127986593019159e-14
    vertex 245.0446735055753 124.43429396688106 0.6000000715255988
  endloop
endfacet
facet normal -0.7976636953254054 0.6031025030289785 6.216100089319041e-17
  outer loop
    vertex 245.0446735055753 124.43429396688106 1.127986593019159e-14
    vertex 253.6860439187074 135.86337512936345 0.6000000715256044
    vertex 253.6860439187074 135.86337512936345 -2.255973186038318e-14
  endloop
endfacet
facet normal 0.5235655924441558 -0.8519853698324873 0.0
  outer loop
    vertex 243.98640937145504 121.50960600805807 0.6000000715255988
    vertex 234.77680624171157 115.85008239470349 4.511946372076643e-14
    vertex 243.98640937145512 121.50960600805807 4.511946372076643e-14
  endloop
endfacet
facet normal 0.5235655924441558 -0.8519853698324873 0.0
  outer loop
    vertex 234.77680624171157 115.85008239470349 4.511946372076643e-14
    vertex 243.98640937145504 121.50960600805807 0.6000000715255988
    vertex 234.77680624171157 115.85008239470349 0.6000000715255945
  endloop
endfacet
facet normal -0.8635039916205351 -0.5043420034613445 -2.8220130888805194e-17
  outer loop
    vertex 206.18755556239793 123.98196131065511 0.6000000715255861
    vertex 209.1484437921771 118.9125068777316 4.511946372076643e-14
    vertex 209.14844379217698 118.9125068777316 0.6000000715255861
  endloop
endfacet
facet normal -0.8635039916205351 -0.5043420034613445 -2.8220130888805194e-17
  outer loop
    vertex 209.1484437921771 118.9125068777316 4.511946372076643e-14
    vertex 206.18755556239793 123.98196131065511 0.6000000715255861
    vertex 206.18755556239805 123.98196131065511 4.511946372076643e-14
  endloop
endfacet
facet normal -0.8640199386592456 0.5034575906660594 -2.009681255208676e-16
  outer loop
    vertex 237.1478086594281 125.68862309490919 0.600000071525596
    vertex 222.81487325211208 101.09083730116926 7.684408664943032e-14
    vertex 222.81487325211208 101.09083730116926 0.600000071525589
  endloop
endfacet
facet normal -0.8640199386592456 0.5034575906660594 -2.009681255208676e-16
  outer loop
    vertex 222.81487325211208 101.09083730116926 7.684408664943032e-14
    vertex 237.1478086594281 125.68862309490919 0.600000071525596
    vertex 237.1478086594281 125.68862309490919 6.83841872017865e-14
  endloop
endfacet
facet normal 0.9788882422199668 -0.20439620652914214 3.32987105959662e-17
  outer loop
    vertex 220.57335903901793 128.1503165575905 7.472911178751939e-14
    vertex 218.63932136805965 118.88788078023421 0.6000000715255903
    vertex 218.63932136805965 118.88788078023421 7.684408664943032e-14
  endloop
endfacet
facet normal 0.9788882422199668 -0.20439620652914214 3.32987105959662e-17
  outer loop
    vertex 218.63932136805965 118.88788078023421 0.6000000715255903
    vertex 220.57335903901793 128.1503165575905 7.472911178751939e-14
    vertex 220.57335903901793 128.1503165575905 0.6000000715255932
  endloop
endfacet
facet normal 0.8017809252818953 -0.5976180618539805 -2.9605522039128867e-29
  outer loop
    vertex 214.8425007066922 92.6937779698968 -3.5249581031848712e-15
    vertex 220.4671356024939 100.23994375534546 0.600000071525589
    vertex 214.8425007066921 92.69377796989677 0.6000000715255833
  endloop
endfacet
facet normal 0.8017809252818953 -0.5976180618539805 -2.9605522039128867e-29
  outer loop
    vertex 220.4671356024939 100.23994375534546 0.600000071525589
    vertex 214.8425007066922 92.6937779698968 -3.5249581031848712e-15
    vertex 220.46713560249398 100.2399437553455 -3.5249581031848712e-15
  endloop
endfacet
facet normal 0.8577676353768863 -0.5140376286809607 0.0
  outer loop
    vertex 234.77680624171157 115.85008239470349 4.511946372076643e-14
    vertex 231.09695895222532 109.70957101589615 0.6000000715255932
    vertex 231.09695895222544 109.70957101589615 4.511946372076643e-14
  endloop
endfacet
facet normal 0.8577676353768863 -0.5140376286809607 0.0
  outer loop
    vertex 231.09695895222532 109.70957101589615 0.6000000715255932
    vertex 234.77680624171157 115.85008239470349 4.511946372076643e-14
    vertex 234.77680624171157 115.85008239470349 0.6000000715255945
  endloop
endfacet
facet normal -0.5451019131126552 0.8383697897234391 1.501442409431203e-16
  outer loop
    vertex 236.4808291224302 118.86614490655853 0.600000071525596
    vertex 245.0446735055753 124.43429396688106 1.127986593019159e-14
    vertex 236.4808291224302 118.86614490655853 1.127986593019159e-14
  endloop
endfacet
facet normal -0.5451019131126552 0.8383697897234391 1.501442409431203e-16
  outer loop
    vertex 245.0446735055753 124.43429396688106 1.127986593019159e-14
    vertex 236.4808291224302 118.86614490655853 0.600000071525596
    vertex 245.0446735055753 124.43429396688106 0.6000000715255988
  endloop
endfacet
facet normal -0.35841611279877517 0.9335619369309225 -7.48886976611271e-18
  outer loop
    vertex 224.65340812061496 125.587003838375 0.6000000715255932
    vertex 227.4188854458196 126.64873482131493 7.261413692560848e-14
    vertex 224.65340812061496 125.587003838375 7.261413692560848e-14
  endloop
endfacet
facet normal -0.35841611279877517 0.9335619369309225 -7.48886976611271e-18
  outer loop
    vertex 227.4188854458196 126.64873482131493 7.261413692560848e-14
    vertex 224.65340812061496 125.587003838375 0.6000000715255932
    vertex 227.4188854458196 126.64873482131493 0.6000000715255945
  endloop
endfacet
facet normal -0.6422167575773385 -0.7665230826836528 -2.481004319942497e-16
  outer loop
    vertex 206.18755556239793 123.98196131065511 0.6000000715255861
    vertex 192.080865064412 135.8009831202078 4.511946372076643e-14
    vertex 206.18755556239805 123.98196131065511 4.511946372076643e-14
  endloop
endfacet
facet normal -0.6422167575773385 -0.7665230826836528 -2.481004319942497e-16
  outer loop
    vertex 192.080865064412 135.8009831202078 4.511946372076643e-14
    vertex 206.18755556239793 123.98196131065511 0.6000000715255861
    vertex 192.08086506441188 135.8009831202078 0.6000000715255819
  endloop
endfacet
facet normal -0.6228296142347229 0.7823575088360987 -6.367968730777242e-17
  outer loop
    vertex 237.1478086594281 125.68862309490919 6.83841872017865e-14
    vertex 255.75467970855902 140.50142949960022 0.6000000715256044
    vertex 255.75467970855902 140.50142949960022 5.992428775414279e-14
  endloop
endfacet
facet normal -0.6228296142347229 0.7823575088360987 -6.367968730777242e-17
  outer loop
    vertex 255.75467970855902 140.50142949960022 0.6000000715256044
    vertex 237.1478086594281 125.68862309490919 6.83841872017865e-14
    vertex 237.1478086594281 125.68862309490919 0.600000071525596
  endloop
endfacet
facet normal -0.8671130152414072 -0.49811145218611 2.759781092442504e-17
  outer loop
    vertex 210.9036453914403 115.87679414039653 0.6000000715255861
    vertex 214.52469031317472 109.57327478417736 4.511946372076643e-14
    vertex 214.52469031317457 109.57327478417736 0.6000000715255861
  endloop
endfacet
facet normal -0.8671130152414072 -0.49811145218611 2.759781092442504e-17
  outer loop
    vertex 214.52469031317472 109.57327478417736 4.511946372076643e-14
    vertex 210.9036453914403 115.87679414039653 0.6000000715255861
    vertex 210.9036453914404 115.8767941403965 4.511946372076643e-14
  endloop
endfacet
facet normal -0.49931330597126106 -0.866421503934459 2.9446332342123272e-18
  outer loop
    vertex 227.4188854458196 126.64873482131493 0.6000000715255945
    vertex 222.93500813627844 129.23276533398078 7.261413692560848e-14
    vertex 227.4188854458196 126.64873482131493 7.261413692560848e-14
  endloop
endfacet
facet normal -0.49931330597126106 -0.866421503934459 2.9446332342123272e-18
  outer loop
    vertex 222.93500813627844 129.23276533398078 7.261413692560848e-14
    vertex 227.4188854458196 126.64873482131493 0.6000000715255945
    vertex 222.93500813627844 129.23276533398078 0.6000000715255932
  endloop
endfacet
facet normal 0.3822513096796407 -0.9240584052148432 -2.4210242796105132e-29
  outer loop
    vertex 255.75467970855902 140.50142949960022 0.6000000715256044
    vertex 233.9733719780082 131.4912485851129 6.83841872017865e-14
    vertex 255.75467970855902 140.50142949960022 5.992428775414279e-14
  endloop
endfacet
facet normal 0.3822513096796407 -0.9240584052148432 -2.4210242796105132e-29
  outer loop
    vertex 233.9733719780082 131.4912485851129 6.83841872017865e-14
    vertex 255.75467970855902 140.50142949960022 0.6000000715256044
    vertex 233.9733719780082 131.4912485851129 0.600000071525596
  endloop
endfacet
facet normal -0.8001055012205931 -0.5998593059347694 3.961573802150538e-17
  outer loop
    vertex 224.97579628775608 100.20140822021125 0.6000000715255903
    vertex 230.5866931153579 92.71747094670404 -5.63993296509581e-15
    vertex 230.5866931153579 92.71747094670404 0.6000000715255903
  endloop
endfacet
facet normal -0.8001055012205931 -0.5998593059347694 3.961573802150538e-17
  outer loop
    vertex 230.5866931153579 92.71747094670404 -5.63993296509581e-15
    vertex 224.97579628775608 100.20140822021125 0.6000000715255903
    vertex 224.97579628775608 100.20140822021125 -5.63993296509581e-15
  endloop
endfacet
facet normal 0.8668735985334 -0.49852799737402304 -1.520700260122367e-17
  outer loop
    vertex 239.44695983417924 124.02385002514383 1.127986593019159e-14
    vertex 236.4808291224302 118.86614490655853 0.600000071525596
    vertex 236.4808291224302 118.86614490655853 1.127986593019159e-14
  endloop
endfacet
facet normal 0.8668735985334 -0.49852799737402304 -1.520700260122367e-17
  outer loop
    vertex 236.4808291224302 118.86614490655853 0.600000071525596
    vertex 239.44695983417924 124.02385002514383 1.127986593019159e-14
    vertex 239.44695983417904 124.02385002514383 0.600000071525596
  endloop
endfacet
facet normal 0.821898043930637 0.5696346244593921 -3.73540072032759e-17
  outer loop
    vertex 214.8425007066922 92.6937779698968 -3.5249581031848712e-15
    vertex 217.94134916719375 88.2226005190161 0.6000000715255861
    vertex 217.9413491671939 88.2226005190161 -3.5249581031848712e-15
  endloop
endfacet
facet normal 0.821898043930637 0.5696346244593921 -3.73540072032759e-17
  outer loop
    vertex 217.94134916719375 88.2226005190161 0.6000000715255861
    vertex 214.8425007066922 92.6937779698968 -3.5249581031848712e-15
    vertex 214.8425007066921 92.69377796989677 0.6000000715255833
  endloop
endfacet
facet normal -0.8270623499750863 0.562110193159391 -5.609520739667705e-17
  outer loop
    vertex 230.5866931153579 92.71747094670404 0.6000000715255903
    vertex 227.50573959200966 88.18430166389419 2.8199664825479005e-14
    vertex 227.50573959200966 88.18430166389419 0.600000071525589
  endloop
endfacet
facet normal -0.8270623499750863 0.562110193159391 -5.609520739667705e-17
  outer loop
    vertex 227.50573959200966 88.18430166389419 2.8199664825479005e-14
    vertex 230.5866931153579 92.71747094670404 0.6000000715255903
    vertex 230.5866931153579 92.71747094670404 -5.63993296509581e-15
  endloop
endfacet
facet normal 0.5369120044601351 0.8436382515430413 2.2971150420302224e-17
  outer loop
    vertex 200.59259327587225 124.35765927826397 0.6000000715255833
    vertex 209.1484437921771 118.9125068777316 4.511946372076643e-14
    vertex 200.59259327587236 124.35765927826397 4.511946372076643e-14
  endloop
endfacet
facet normal 0.5369120044601351 0.8436382515430413 2.2971150420302224e-17
  outer loop
    vertex 209.1484437921771 118.9125068777316 4.511946372076643e-14
    vertex 200.59259327587225 124.35765927826397 0.6000000715255833
    vertex 209.14844379217698 118.9125068777316 0.6000000715255861
  endloop
endfacet
facet normal -0.003210107778342197 0.9999948475907521 -0.0
  outer loop
    vertex 220.4671356024939 86.78344823592484 0.6000000715255861
    vertex 224.8929522968551 86.7976556577234 1.127986593019159e-13
    vertex 220.4671356024939 86.78344823592484 1.127986593019159e-13
  endloop
endfacet
facet normal -0.003210107778342197 0.9999948475907521 -0.0
  outer loop
    vertex 224.8929522968551 86.7976556577234 1.127986593019159e-13
    vertex 220.4671356024939 86.78344823592484 0.6000000715255861
    vertex 224.89295229685501 86.7976556577234 0.600000071525589
  endloop
endfacet
facet normal 0.6393433583882262 -0.7689213679465957 3.4116322421152845e-18
  outer loop
    vertex 253.6860439187074 135.86337512936345 0.6000000715256044
    vertex 239.44695983417924 124.02385002514383 1.127986593019159e-14
    vertex 253.6860439187074 135.86337512936345 -2.255973186038318e-14
  endloop
endfacet
facet normal 0.6393433583882262 -0.7689213679465957 3.4116322421152845e-18
  outer loop
    vertex 239.44695983417924 124.02385002514383 1.127986593019159e-14
    vertex 253.6860439187074 135.86337512936345 0.6000000715256044
    vertex 239.44695983417904 124.02385002514383 0.600000071525596
  endloop
endfacet
facet normal 0.9796621362503594 -0.2006541771241815 0.0
  outer loop
    vertex 222.75986954368943 97.97735739284897 1.127986593019159e-13
    vertex 220.4671356024939 86.78344823592484 0.6000000715255861
    vertex 220.4671356024939 86.78344823592484 1.127986593019159e-13
  endloop
endfacet
facet normal 0.9796621362503594 -0.2006541771241815 0.0
  outer loop
    vertex 220.4671356024939 86.78344823592484 0.6000000715255861
    vertex 222.75986954368943 97.97735739284897 1.127986593019159e-13
    vertex 222.75986954368943 97.97735739284896 0.600000071525589
  endloop
endfacet
facet normal 0.8656575188238512 0.500636654774432 -2.7471891431804957e-16
  outer loop
    vertex 208.5886420319567 125.68960349778907 7.895906151134121e-14
    vertex 222.81487325211208 101.09083730116926 0.600000071525589
    vertex 222.81487325211208 101.09083730116926 7.684408664943032e-14
  endloop
endfacet
facet normal 0.8656575188238512 0.500636654774432 -2.7471891431804957e-16
  outer loop
    vertex 222.81487325211208 101.09083730116926 0.600000071525589
    vertex 208.5886420319567 125.68960349778907 7.895906151134121e-14
    vertex 208.5886420319567 125.68960349778907 0.6000000715255861
  endloop
endfacet
facet normal 0.683132390621609 0.7302945548774175 1.785599799516625e-16
  outer loop
    vertex 201.71500194069344 121.55571800871954 0.6000000715255833
    vertex 214.52469031317472 109.57327478417736 4.511946372076643e-14
    vertex 201.71500194069358 121.55571800871954 4.511946372076643e-14
  endloop
endfacet
facet normal 0.683132390621609 0.7302945548774175 1.785599799516625e-16
  outer loop
    vertex 214.52469031317472 109.57327478417736 4.511946372076643e-14
    vertex 201.71500194069344 121.55571800871954 0.6000000715255833
    vertex 214.52469031317457 109.57327478417736 0.6000000715255861
  endloop
endfacet
facet normal -0.9786183603373236 0.20568447877924217 -7.000167768812444e-17
  outer loop
    vertex 220.4671356024939 100.23994375534546 0.600000071525589
    vertex 217.9413491671939 88.2226005190161 -3.5249581031848712e-15
    vertex 217.94134916719375 88.2226005190161 0.6000000715255861
  endloop
endfacet
facet normal -0.9786183603373236 0.20568447877924217 -7.000167768812444e-17
  outer loop
    vertex 217.9413491671939 88.2226005190161 -3.5249581031848712e-15
    vertex 220.4671356024939 100.23994375534546 0.600000071525589
    vertex 220.46713560249398 100.2399437553455 -3.5249581031848712e-15
  endloop
endfacet
facet normal 0.6263503481920365 0.7795416867106689 -1.1687777199944265e-16
  outer loop
    vertex 190.0594494919022 140.57753880263718 8.318901123516309e-14
    vertex 208.5886420319567 125.68960349778907 0.6000000715255861
    vertex 208.5886420319567 125.68960349778907 7.895906151134121e-14
  endloop
endfacet
facet normal 0.6263503481920365 0.7795416867106689 -1.1687777199944265e-16
  outer loop
    vertex 208.5886420319567 125.68960349778907 0.6000000715255861
    vertex 190.0594494919022 140.57753880263718 8.318901123516309e-14
    vertex 190.0594494919022 140.57753880263718 0.6000000715255819
  endloop
endfacet
facet normal 0.9785493559727603 0.2060125188557631 -1.2853793866819641e-17
  outer loop
    vertex 224.97579628775608 100.20140822021125 -5.63993296509581e-15
    vertex 227.50573959200966 88.18430166389419 0.600000071525589
    vertex 227.50573959200966 88.18430166389419 2.8199664825479005e-14
  endloop
endfacet
facet normal 0.9785493559727603 0.2060125188557631 -1.2853793866819641e-17
  outer loop
    vertex 227.50573959200966 88.18430166389419 0.600000071525589
    vertex 224.97579628775608 100.20140822021125 -5.63993296509581e-15
    vertex 224.97579628775608 100.20140822021125 0.6000000715255903
  endloop
endfacet
facet normal -0.8773842148281016 -0.47978843209322564 -2.6679845971538725e-18
  outer loop
    vertex 211.79510495463202 131.40382956584827 0.600000071525589
    vertex 218.63932136805965 118.88788078023421 7.684408664943032e-14
    vertex 218.63932136805965 118.88788078023421 0.6000000715255903
  endloop
endfacet
facet normal -0.8773842148281016 -0.47978843209322564 -2.6679845971538725e-18
  outer loop
    vertex 218.63932136805965 118.88788078023421 7.684408664943032e-14
    vertex 211.79510495463202 131.40382956584827 0.600000071525589
    vertex 211.79510495463202 131.40382956584827 7.684408664943032e-14
  endloop
endfacet
facet normal -0.9822801247046089 -0.18741866665382648 0.0
  outer loop
    vertex 222.75986954368943 97.97735739284896 0.600000071525589
    vertex 224.8929522968551 86.7976556577234 1.127986593019159e-13
    vertex 224.89295229685501 86.7976556577234 0.600000071525589
  endloop
endfacet
facet normal -0.9822801247046089 -0.18741866665382648 0.0
  outer loop
    vertex 224.8929522968551 86.7976556577234 1.127986593019159e-13
    vertex 222.75986954368943 97.97735739284896 0.600000071525589
    vertex 222.75986954368943 97.97735739284897 1.127986593019159e-13
  endloop
endfacet
facet normal -2.5008242833575215e-16 -1.4661664185416097e-16 1.0
  outer loop
    vertex 201.71500194069344 121.55571800871954 0.6000000715255833
    vertex 209.14844379217698 118.9125068777316 0.6000000715255861
    vertex 200.59259327587225 124.35765927826397 0.6000000715255833
  endloop
endfacet
facet normal -2.5008242833575215e-16 -1.4661664185416097e-16 1.0
  outer loop
    vertex 209.14844379217698 118.9125068777316 0.6000000715255861
    vertex 201.71500194069344 121.55571800871954 0.6000000715255833
    vertex 210.9036453914403 115.87679414039653 0.6000000715255861
  endloop
endfacet
facet normal -2.5008242833575215e-16 -1.4661664185416097e-16 1.0
  outer loop
    vertex 220.4671356024939 86.78344823592484 0.6000000715255861
    vertex 220.4671356024939 100.23994375534546 0.600000071525589
    vertex 217.94134916719375 88.2226005190161 0.6000000715255861
  endloop
endfacet
facet normal -2.5008242833575215e-16 -1.4661664185416097e-16 1.0
  outer loop
    vertex 220.4671356024939 100.23994375534546 0.600000071525589
    vertex 220.4671356024939 86.78344823592484 0.6000000715255861
    vertex 222.75986954368943 97.97735739284896 0.600000071525589
  endloop
endfacet
facet normal -2.5008242833575215e-16 -1.4661664185416097e-16 1.0
  outer loop
    vertex 226.88560796648153 118.93292488265527 0.6000000715255932
    vertex 227.4188854458196 126.64873482131493 0.6000000715255945
    vertex 224.65340812061496 125.587003838375 0.6000000715255932
  endloop
endfacet
facet normal -2.5008242833575215e-16 -1.4661664185416097e-16 1.0
  outer loop
    vertex 227.4188854458196 126.64873482131493 0.6000000715255945
    vertex 226.88560796648153 118.93292488265527 0.6000000715255932
    vertex 233.9733719780082 131.4912485851129 0.600000071525596
  endloop
endfacet
facet normal -2.5008242833575215e-16 -1.4661664185416097e-16 1.0
  outer loop
    vertex 175.05944949190254 71.78344823592495 0.6000000715255819
    vertex 214.8425007066921 92.69377796989677 0.6000000715255833
    vertex 175.05944949190254 155.57753880263738 0.6000000715255819
  endloop
endfacet
facet normal -2.5008242833575215e-16 -1.4661664185416097e-16 1.0
  outer loop
    vertex 214.8425007066921 92.69377796989677 0.6000000715255833
    vertex 175.05944949190254 71.78344823592495 0.6000000715255819
    vertex 217.94134916719375 88.2226005190161 0.6000000715255861
  endloop
endfacet
facet normal -2.5008242833575215e-16 -1.4661664185416097e-16 1.0
  outer loop
    vertex 217.94134916719375 88.2226005190161 0.6000000715255861
    vertex 175.05944949190254 71.78344823592495 0.6000000715255819
    vertex 220.4671356024939 86.78344823592484 0.6000000715255861
  endloop
endfacet
facet normal -2.5008242833575215e-16 -1.4661664185416097e-16 1.0
  outer loop
    vertex 220.4671356024939 86.78344823592484 0.6000000715255861
    vertex 175.05944949190254 71.78344823592495 0.6000000715255819
    vertex 270.75467970855954 71.78344823592495 0.600000071525596
  endloop
endfacet
facet normal -2.5008242833575215e-16 -1.4661664185416097e-16 1.0
  outer loop
    vertex 175.05944949190254 155.57753880263738 0.6000000715255819
    vertex 214.8425007066921 92.69377796989677 0.6000000715255833
    vertex 192.08086506441188 135.8009831202078 0.6000000715255819
  endloop
endfacet
facet normal -2.5008242833575215e-16 -1.4661664185416097e-16 1.0
  outer loop
    vertex 175.05944949190254 155.57753880263738 0.6000000715255819
    vertex 192.08086506441188 135.8009831202078 0.6000000715255819
    vertex 190.0594494919022 140.57753880263718 0.6000000715255819
  endloop
endfacet
facet normal -2.5008242833575215e-16 -1.4661664185416097e-16 1.0
  outer loop
    vertex 192.08086506441188 135.8009831202078 0.6000000715255819
    vertex 214.8425007066921 92.69377796989677 0.6000000715255833
    vertex 201.71500194069344 121.55571800871954 0.6000000715255833
  endloop
endfacet
facet normal -2.5008242833575215e-16 -1.4661664185416097e-16 1.0
  outer loop
    vertex 192.08086506441188 135.8009831202078 0.6000000715255819
    vertex 201.71500194069344 121.55571800871954 0.6000000715255833
    vertex 200.59259327587225 124.35765927826397 0.6000000715255833
  endloop
endfacet
facet normal -2.5008242833575215e-16 -1.4661664185416097e-16 1.0
  outer loop
    vertex 201.71500194069344 121.55571800871954 0.6000000715255833
    vertex 214.8425007066921 92.69377796989677 0.6000000715255833
    vertex 214.52469031317457 109.57327478417736 0.6000000715255861
  endloop
endfacet
facet normal -2.5008242833575215e-16 -1.4661664185416097e-16 1.0
  outer loop
    vertex 220.4671356024939 86.78344823592484 0.6000000715255861
    vertex 270.75467970855954 71.78344823592495 0.600000071525596
    vertex 224.89295229685501 86.7976556577234 0.600000071525589
  endloop
endfacet
facet normal -2.5008242833575215e-16 -1.4661664185416097e-16 1.0
  outer loop
    vertex 224.89295229685501 86.7976556577234 0.600000071525589
    vertex 270.75467970855954 71.78344823592495 0.600000071525596
    vertex 227.50573959200966 88.18430166389419 0.600000071525589
  endloop
endfacet
facet normal -2.5008242833575215e-16 -1.4661664185416097e-16 1.0
  outer loop
    vertex 224.89295229685501 86.7976556577234 0.600000071525589
    vertex 227.50573959200966 88.18430166389419 0.600000071525589
    vertex 224.97579628775608 100.20140822021125 0.6000000715255903
  endloop
endfacet
facet normal -2.5008242833575215e-16 -1.4661664185416097e-16 1.0
  outer loop
    vertex 227.50573959200966 88.18430166389419 0.600000071525589
    vertex 270.75467970855954 71.78344823592495 0.600000071525596
    vertex 230.5866931153579 92.71747094670404 0.6000000715255903
  endloop
endfacet
facet normal -2.5008242833575215e-16 -1.4661664185416097e-16 1.0
  outer loop
    vertex 230.5866931153579 92.71747094670404 0.6000000715255903
    vertex 270.75467970855954 71.78344823592495 0.600000071525596
    vertex 231.09695895222532 109.70957101589615 0.6000000715255932
  endloop
endfacet
facet normal -2.5008242833575215e-16 -1.4661664185416097e-16 1.0
  outer loop
    vertex 231.09695895222532 109.70957101589615 0.6000000715255932
    vertex 270.75467970855954 71.78344823592495 0.600000071525596
    vertex 243.98640937145504 121.50960600805807 0.6000000715255988
  endloop
endfacet
facet normal -2.5008242833575215e-16 -1.4661664185416097e-16 1.0
  outer loop
    vertex 243.98640937145504 121.50960600805807 0.6000000715255988
    vertex 270.75467970855954 71.78344823592495 0.600000071525596
    vertex 245.0446735055753 124.43429396688106 0.6000000715255988
  endloop
endfacet
facet normal -2.5008242833575215e-16 -1.4661664185416097e-16 1.0
  outer loop
    vertex 245.0446735055753 124.43429396688106 0.6000000715255988
    vertex 270.75467970855954 71.78344823592495 0.600000071525596
    vertex 253.6860439187074 135.86337512936345 0.6000000715256044
  endloop
endfacet
facet normal -2.5008242833575215e-16 -1.4661664185416097e-16 1.0
  outer loop
    vertex 253.6860439187074 135.86337512936345 0.6000000715256044
    vertex 270.75467970855954 71.78344823592495 0.600000071525596
    vertex 255.75467970855902 140.50142949960022 0.6000000715256044
  endloop
endfacet
facet normal -2.5008242833575215e-16 -1.4661664185416097e-16 1.0
  outer loop
    vertex 190.0594494919022 140.57753880263718 0.6000000715255819
    vertex 270.75467970855954 155.57753880263738 0.6000000715256214
    vertex 175.05944949190254 155.57753880263738 0.6000000715255819
  endloop
endfacet
facet normal -2.5008242833575215e-16 -1.4661664185416097e-16 1.0
  outer loop
    vertex 270.75467970855954 155.57753880263738 0.6000000715256214
    vertex 190.0594494919022 140.57753880263718 0.6000000715255819
    vertex 211.79510495463202 131.40382956584827 0.600000071525589
  endloop
endfacet
facet normal -2.5008242833575215e-16 -1.4661664185416097e-16 1.0
  outer loop
    vertex 270.75467970855954 155.57753880263738 0.6000000715256214
    vertex 211.79510495463202 131.40382956584827 0.600000071525589
    vertex 220.57335903901793 128.1503165575905 0.6000000715255932
  endloop
endfacet
facet normal -2.5008242833575215e-16 -1.4661664185416097e-16 1.0
  outer loop
    vertex 220.57335903901793 128.1503165575905 0.6000000715255932
    vertex 211.79510495463202 131.40382956584827 0.600000071525589
    vertex 218.63932136805965 118.88788078023421 0.6000000715255903
  endloop
endfacet
facet normal -2.5008242833575215e-16 -1.4661664185416097e-16 1.0
  outer loop
    vertex 270.75467970855954 155.57753880263738 0.6000000715256214
    vertex 220.57335903901793 128.1503165575905 0.6000000715255932
    vertex 222.93500813627844 129.23276533398078 0.6000000715255932
  endloop
endfacet
facet normal -2.5008242833575215e-16 -1.4661664185416097e-16 1.0
  outer loop
    vertex 270.75467970855954 155.57753880263738 0.6000000715256214
    vertex 222.93500813627844 129.23276533398078 0.6000000715255932
    vertex 233.9733719780082 131.4912485851129 0.600000071525596
  endloop
endfacet
facet normal -2.5008242833575215e-16 -1.4661664185416097e-16 1.0
  outer loop
    vertex 233.9733719780082 131.4912485851129 0.600000071525596
    vertex 222.93500813627844 129.23276533398078 0.6000000715255932
    vertex 227.4188854458196 126.64873482131493 0.6000000715255945
  endloop
endfacet
facet normal -2.5008242833575215e-16 -1.4661664185416097e-16 1.0
  outer loop
    vertex 270.75467970855954 155.57753880263738 0.6000000715256214
    vertex 233.9733719780082 131.4912485851129 0.600000071525596
    vertex 255.75467970855902 140.50142949960022 0.6000000715256044
  endloop
endfacet
facet normal -2.5008242833575215e-16 -1.4661664185416097e-16 1.0
  outer loop
    vertex 270.75467970855954 155.57753880263738 0.6000000715256214
    vertex 255.75467970855902 140.50142949960022 0.6000000715256044
    vertex 270.75467970855954 71.78344823592495 0.600000071525596
  endloop
endfacet
facet normal -2.5008242833575215e-16 -1.4661664185416097e-16 1.0
  outer loop
    vertex 192.08086506441188 135.8009831202078 0.6000000715255819
    vertex 208.5886420319567 125.68960349778907 0.6000000715255861
    vertex 190.0594494919022 140.57753880263718 0.6000000715255819
  endloop
endfacet
facet normal -2.5008242833575215e-16 -1.4661664185416097e-16 1.0
  outer loop
    vertex 208.5886420319567 125.68960349778907 0.6000000715255861
    vertex 192.08086506441188 135.8009831202078 0.6000000715255819
    vertex 206.18755556239793 123.98196131065511 0.6000000715255861
  endloop
endfacet
facet normal -2.5008242833575215e-16 -1.4661664185416097e-16 1.0
  outer loop
    vertex 208.5886420319567 125.68960349778907 0.6000000715255861
    vertex 206.18755556239793 123.98196131065511 0.6000000715255861
    vertex 209.14844379217698 118.9125068777316 0.6000000715255861
  endloop
endfacet
facet normal -2.5008242833575215e-16 -1.4661664185416097e-16 1.0
  outer loop
    vertex 208.5886420319567 125.68960349778907 0.6000000715255861
    vertex 209.14844379217698 118.9125068777316 0.6000000715255861
    vertex 222.81487325211208 101.09083730116926 0.600000071525589
  endloop
endfacet
facet normal -2.5008242833575215e-16 -1.4661664185416097e-16 1.0
  outer loop
    vertex 222.81487325211208 101.09083730116926 0.600000071525589
    vertex 209.14844379217698 118.9125068777316 0.6000000715255861
    vertex 210.9036453914403 115.87679414039653 0.6000000715255861
  endloop
endfacet
facet normal -2.5008242833575215e-16 -1.4661664185416097e-16 1.0
  outer loop
    vertex 222.81487325211208 101.09083730116926 0.600000071525589
    vertex 210.9036453914403 115.87679414039653 0.6000000715255861
    vertex 214.52469031317457 109.57327478417736 0.6000000715255861
  endloop
endfacet
facet normal -2.5008242833575215e-16 -1.4661664185416097e-16 1.0
  outer loop
    vertex 222.81487325211208 101.09083730116926 0.600000071525589
    vertex 214.52469031317457 109.57327478417736 0.6000000715255861
    vertex 220.4671356024939 100.23994375534546 0.600000071525589
  endloop
endfacet
facet normal -2.5008242833575215e-16 -1.4661664185416097e-16 1.0
  outer loop
    vertex 220.4671356024939 100.23994375534546 0.600000071525589
    vertex 214.52469031317457 109.57327478417736 0.6000000715255861
    vertex 214.8425007066921 92.69377796989677 0.6000000715255833
  endloop
endfacet
facet normal -2.5008242833575215e-16 -1.4661664185416097e-16 1.0
  outer loop
    vertex 222.81487325211208 101.09083730116926 0.600000071525589
    vertex 220.4671356024939 100.23994375534546 0.600000071525589
    vertex 222.75986954368943 97.97735739284896 0.600000071525589
  endloop
endfacet
facet normal -2.5008242833575215e-16 -1.4661664185416097e-16 1.0
  outer loop
    vertex 222.81487325211208 101.09083730116926 0.600000071525589
    vertex 222.75986954368943 97.97735739284896 0.600000071525589
    vertex 224.89295229685501 86.7976556577234 0.600000071525589
  endloop
endfacet
facet normal -2.5008242833575215e-16 -1.4661664185416097e-16 1.0
  outer loop
    vertex 222.81487325211208 101.09083730116926 0.600000071525589
    vertex 224.89295229685501 86.7976556577234 0.600000071525589
    vertex 224.97579628775608 100.20140822021125 0.6000000715255903
  endloop
endfacet
facet normal -2.5008242833575215e-16 -1.4661664185416097e-16 1.0
  outer loop
    vertex 222.81487325211208 101.09083730116926 0.600000071525589
    vertex 224.97579628775608 100.20140822021125 0.6000000715255903
    vertex 237.1478086594281 125.68862309490919 0.600000071525596
  endloop
endfacet
facet normal -2.5008242833575215e-16 -1.4661664185416097e-16 1.0
  outer loop
    vertex 237.1478086594281 125.68862309490919 0.600000071525596
    vertex 224.97579628775608 100.20140822021125 0.6000000715255903
    vertex 231.09695895222532 109.70957101589615 0.6000000715255932
  endloop
endfacet
facet normal -2.5008242833575215e-16 -1.4661664185416097e-16 1.0
  outer loop
    vertex 231.09695895222532 109.70957101589615 0.6000000715255932
    vertex 224.97579628775608 100.20140822021125 0.6000000715255903
    vertex 230.5866931153579 92.71747094670404 0.6000000715255903
  endloop
endfacet
facet normal -2.5008242833575215e-16 -1.4661664185416097e-16 1.0
  outer loop
    vertex 237.1478086594281 125.68862309490919 0.600000071525596
    vertex 231.09695895222532 109.70957101589615 0.6000000715255932
    vertex 234.77680624171157 115.85008239470349 0.6000000715255945
  endloop
endfacet
facet normal -2.5008242833575215e-16 -1.4661664185416097e-16 1.0
  outer loop
    vertex 237.1478086594281 125.68862309490919 0.600000071525596
    vertex 234.77680624171157 115.85008239470349 0.6000000715255945
    vertex 236.4808291224302 118.86614490655853 0.600000071525596
  endloop
endfacet
facet normal -2.5008242833575215e-16 -1.4661664185416097e-16 1.0
  outer loop
    vertex 237.1478086594281 125.68862309490919 0.600000071525596
    vertex 236.4808291224302 118.86614490655853 0.600000071525596
    vertex 239.44695983417904 124.02385002514383 0.600000071525596
  endloop
endfacet
facet normal -2.5008242833575215e-16 -1.4661664185416097e-16 1.0
  outer loop
    vertex 237.1478086594281 125.68862309490919 0.600000071525596
    vertex 239.44695983417904 124.02385002514383 0.600000071525596
    vertex 255.75467970855902 140.50142949960022 0.6000000715256044
  endloop
endfacet
facet normal -2.5008242833575215e-16 -1.4661664185416097e-16 1.0
  outer loop
    vertex 255.75467970855902 140.50142949960022 0.6000000715256044
    vertex 239.44695983417904 124.02385002514383 0.600000071525596
    vertex 253.6860439187074 135.86337512936345 0.6000000715256044
  endloop
endfacet
facet normal -2.5008242833575215e-16 -1.4661664185416097e-16 1.0
  outer loop
    vertex 243.98640937145504 121.50960600805807 0.6000000715255988
    vertex 236.4808291224302 118.86614490655853 0.600000071525596
    vertex 234.77680624171157 115.85008239470349 0.6000000715255945
  endloop
endfacet
facet normal -2.5008242833575215e-16 -1.4661664185416097e-16 1.0
  outer loop
    vertex 236.4808291224302 118.86614490655853 0.600000071525596
    vertex 243.98640937145504 121.50960600805807 0.6000000715255988
    vertex 245.0446735055753 124.43429396688106 0.6000000715255988
  endloop
endfacet
facet normal 0.0 1.0 0.0
  outer loop
    vertex 175.05944949190254 155.57753880263738 0.6000000715255819
    vertex 270.75467970855954 155.57753880263738 3.179999664934514e-14
    vertex 175.05944949190254 155.57753880263738 -1.40998324127395e-15
  endloop
endfacet
facet normal 0.0 1.0 0.0
  outer loop
    vertex 270.75467970855954 155.57753880263738 3.179999664934514e-14
    vertex 175.05944949190254 155.57753880263738 0.6000000715255819
    vertex 270.75467970855954 155.57753880263738 0.6000000715256214
  endloop
endfacet
facet normal 0.0 -1.0 0.0
  outer loop
    vertex 270.75467970855954 71.78344823592495 1.127986593019159e-14
    vertex 175.05944949190254 71.78344823592495 0.6000000715255819
    vertex 175.05944949190254 71.78344823592495 -1.40998324127395e-15
  endloop
endfacet
facet normal 0.0 -1.0 0.0
  outer loop
    vertex 175.05944949190254 71.78344823592495 0.6000000715255819
    vertex 270.75467970855954 71.78344823592495 1.127986593019159e-14
    vertex 270.75467970855954 71.78344823592495 0.600000071525596
  endloop
endfacet
facet normal -1.0 0.0 0.0
  outer loop
    vertex 175.05944949190254 155.57753880263738 0.6000000715255819
    vertex 175.05944949190254 71.78344823592495 -1.40998324127395e-15
    vertex 175.05944949190254 71.78344823592495 0.6000000715255819
  endloop
endfacet
facet normal -1.0 0.0 0.0
  outer loop
    vertex 175.05944949190254 71.78344823592495 -1.40998324127395e-15
    vertex 175.05944949190254 155.57753880263738 0.6000000715255819
    vertex 175.05944949190254 155.57753880263738 -1.40998324127395e-15
  endloop
endfacet
facet normal 1.0 0.0 0.0
  outer loop
    vertex 270.75467970855954 155.57753880263738 3.179999664934514e-14
    vertex 270.75467970855954 71.78344823592495 0.600000071525596
    vertex 270.75467970855954 71.78344823592495 1.127986593019159e-14
  endloop
endfacet
facet normal 1.0 0.0 0.0
  outer loop
    vertex 270.75467970855954 71.78344823592495 0.600000071525596
    vertex 270.75467970855954 155.57753880263738 3.179999664934514e-14
    vertex 270.75467970855954 155.57753880263738 0.6000000715256214
  endloop
endfacet
facet normal 2.1709460322702427e-16 1.2931994050585541e-16 -1.0
  outer loop
    vertex 236.4808291224302 118.86614490655853 1.127986593019159e-14
    vertex 243.98640937145512 121.50960600805807 4.511946372076643e-14
    vertex 234.77680624171157 115.85008239470349 4.511946372076643e-14
  endloop
endfacet
facet normal 2.1709460322702427e-16 1.2931994050585541e-16 -1.0
  outer loop
    vertex 243.98640937145512 121.50960600805807 4.511946372076643e-14
    vertex 236.4808291224302 118.86614490655853 1.127986593019159e-14
    vertex 245.0446735055753 124.43429396688106 1.127986593019159e-14
  endloop
endfacet
facet normal 2.1709460322702427e-16 1.2931994050585541e-16 -1.0
  outer loop
    vertex 208.5886420319567 125.68960349778907 7.895906151134121e-14
    vertex 192.080865064412 135.8009831202078 4.511946372076643e-14
    vertex 190.0594494919022 140.57753880263718 8.318901123516309e-14
  endloop
endfacet
facet normal 2.1709460322702427e-16 1.2931994050585541e-16 -1.0
  outer loop
    vertex 192.080865064412 135.8009831202078 4.511946372076643e-14
    vertex 208.5886420319567 125.68960349778907 7.895906151134121e-14
    vertex 206.18755556239805 123.98196131065511 4.511946372076643e-14
  endloop
endfacet
facet normal 2.1709460322702427e-16 1.2931994050585541e-16 -1.0
  outer loop
    vertex 206.18755556239805 123.98196131065511 4.511946372076643e-14
    vertex 208.5886420319567 125.68960349778907 7.895906151134121e-14
    vertex 209.1484437921771 118.9125068777316 4.511946372076643e-14
  endloop
endfacet
facet normal 2.1709460322702427e-16 1.2931994050585541e-16 -1.0
  outer loop
    vertex 209.1484437921771 118.9125068777316 4.511946372076643e-14
    vertex 208.5886420319567 125.68960349778907 7.895906151134121e-14
    vertex 222.81487325211208 101.09083730116926 7.684408664943032e-14
  endloop
endfacet
facet normal 2.1709460322702427e-16 1.2931994050585541e-16 -1.0
  outer loop
    vertex 209.1484437921771 118.9125068777316 4.511946372076643e-14
    vertex 222.81487325211208 101.09083730116926 7.684408664943032e-14
    vertex 210.9036453914404 115.8767941403965 4.511946372076643e-14
  endloop
endfacet
facet normal 2.1709460322702427e-16 1.2931994050585541e-16 -1.0
  outer loop
    vertex 210.9036453914404 115.8767941403965 4.511946372076643e-14
    vertex 222.81487325211208 101.09083730116926 7.684408664943032e-14
    vertex 214.52469031317472 109.57327478417736 4.511946372076643e-14
  endloop
endfacet
facet normal 2.1709460322702427e-16 1.2931994050585541e-16 -1.0
  outer loop
    vertex 214.52469031317472 109.57327478417736 4.511946372076643e-14
    vertex 222.81487325211208 101.09083730116926 7.684408664943032e-14
    vertex 220.46713560249398 100.2399437553455 -3.5249581031848712e-15
  endloop
endfacet
facet normal 2.1709460322702427e-16 1.2931994050585541e-16 -1.0
  outer loop
    vertex 214.52469031317472 109.57327478417736 4.511946372076643e-14
    vertex 220.46713560249398 100.2399437553455 -3.5249581031848712e-15
    vertex 214.8425007066922 92.6937779698968 -3.5249581031848712e-15
  endloop
endfacet
facet normal 2.1709460322702427e-16 1.2931994050585541e-16 -1.0
  outer loop
    vertex 220.46713560249398 100.2399437553455 -3.5249581031848712e-15
    vertex 222.81487325211208 101.09083730116926 7.684408664943032e-14
    vertex 222.75986954368943 97.97735739284897 1.127986593019159e-13
  endloop
endfacet
facet normal 2.1709460322702427e-16 1.2931994050585541e-16 -1.0
  outer loop
    vertex 222.75986954368943 97.97735739284897 1.127986593019159e-13
    vertex 222.81487325211208 101.09083730116926 7.684408664943032e-14
    vertex 224.8929522968551 86.7976556577234 1.127986593019159e-13
  endloop
endfacet
facet normal 2.1709460322702427e-16 1.2931994050585541e-16 -1.0
  outer loop
    vertex 224.8929522968551 86.7976556577234 1.127986593019159e-13
    vertex 222.81487325211208 101.09083730116926 7.684408664943032e-14
    vertex 224.97579628775608 100.20140822021125 -5.63993296509581e-15
  endloop
endfacet
facet normal 2.1709460322702427e-16 1.2931994050585541e-16 -1.0
  outer loop
    vertex 224.97579628775608 100.20140822021125 -5.63993296509581e-15
    vertex 222.81487325211208 101.09083730116926 7.684408664943032e-14
    vertex 237.1478086594281 125.68862309490919 6.83841872017865e-14
  endloop
endfacet
facet normal 2.1709460322702427e-16 1.2931994050585541e-16 -1.0
  outer loop
    vertex 224.97579628775608 100.20140822021125 -5.63993296509581e-15
    vertex 237.1478086594281 125.68862309490919 6.83841872017865e-14
    vertex 231.09695895222544 109.70957101589615 4.511946372076643e-14
  endloop
endfacet
facet normal 2.1709460322702427e-16 1.2931994050585541e-16 -1.0
  outer loop
    vertex 224.97579628775608 100.20140822021125 -5.63993296509581e-15
    vertex 231.09695895222544 109.70957101589615 4.511946372076643e-14
    vertex 230.5866931153579 92.71747094670404 -5.63993296509581e-15
  endloop
endfacet
facet normal 2.1709460322702427e-16 1.2931994050585541e-16 -1.0
  outer loop
    vertex 231.09695895222544 109.70957101589615 4.511946372076643e-14
    vertex 237.1478086594281 125.68862309490919 6.83841872017865e-14
    vertex 234.77680624171157 115.85008239470349 4.511946372076643e-14
  endloop
endfacet
facet normal 2.1709460322702427e-16 1.2931994050585541e-16 -1.0
  outer loop
    vertex 234.77680624171157 115.85008239470349 4.511946372076643e-14
    vertex 237.1478086594281 125.68862309490919 6.83841872017865e-14
    vertex 236.4808291224302 118.86614490655853 1.127986593019159e-14
  endloop
endfacet
facet normal 2.1709460322702427e-16 1.2931994050585541e-16 -1.0
  outer loop
    vertex 236.4808291224302 118.86614490655853 1.127986593019159e-14
    vertex 237.1478086594281 125.68862309490919 6.83841872017865e-14
    vertex 239.44695983417924 124.02385002514383 1.127986593019159e-14
  endloop
endfacet
facet normal 2.1709460322702427e-16 1.2931994050585541e-16 -1.0
  outer loop
    vertex 239.44695983417924 124.02385002514383 1.127986593019159e-14
    vertex 237.1478086594281 125.68862309490919 6.83841872017865e-14
    vertex 255.75467970855902 140.50142949960022 5.992428775414279e-14
  endloop
endfacet
facet normal 2.1709460322702427e-16 1.2931994050585541e-16 -1.0
  outer loop
    vertex 239.44695983417924 124.02385002514383 1.127986593019159e-14
    vertex 255.75467970855902 140.50142949960022 5.992428775414279e-14
    vertex 253.6860439187074 135.86337512936345 -2.255973186038318e-14
  endloop
endfacet
facet normal 2.1709460322702427e-16 1.2931994050585541e-16 -1.0
  outer loop
    vertex 175.05944949190254 155.57753880263738 -1.40998324127395e-15
    vertex 190.0594494919022 140.57753880263718 8.318901123516309e-14
    vertex 175.05944949190254 71.78344823592495 -1.40998324127395e-15
  endloop
endfacet
facet normal 2.1709460322702427e-16 1.2931994050585541e-16 -1.0
  outer loop
    vertex 190.0594494919022 140.57753880263718 8.318901123516309e-14
    vertex 175.05944949190254 155.57753880263738 -1.40998324127395e-15
    vertex 270.75467970855954 155.57753880263738 3.179999664934514e-14
  endloop
endfacet
facet normal 2.1709460322702427e-16 1.2931994050585541e-16 -1.0
  outer loop
    vertex 190.0594494919022 140.57753880263718 8.318901123516309e-14
    vertex 270.75467970855954 155.57753880263738 3.179999664934514e-14
    vertex 211.79510495463202 131.40382956584827 7.684408664943032e-14
  endloop
endfacet
facet normal 2.1709460322702427e-16 1.2931994050585541e-16 -1.0
  outer loop
    vertex 211.79510495463202 131.40382956584827 7.684408664943032e-14
    vertex 270.75467970855954 155.57753880263738 3.179999664934514e-14
    vertex 220.57335903901793 128.1503165575905 7.472911178751939e-14
  endloop
endfacet
facet normal 2.1709460322702427e-16 1.2931994050585541e-16 -1.0
  outer loop
    vertex 211.79510495463202 131.40382956584827 7.684408664943032e-14
    vertex 220.57335903901793 128.1503165575905 7.472911178751939e-14
    vertex 218.63932136805965 118.88788078023421 7.684408664943032e-14
  endloop
endfacet
facet normal 2.1709460322702427e-16 1.2931994050585541e-16 -1.0
  outer loop
    vertex 220.57335903901793 128.1503165575905 7.472911178751939e-14
    vertex 270.75467970855954 155.57753880263738 3.179999664934514e-14
    vertex 222.93500813627844 129.23276533398078 7.261413692560848e-14
  endloop
endfacet
facet normal 2.1709460322702427e-16 1.2931994050585541e-16 -1.0
  outer loop
    vertex 222.93500813627844 129.23276533398078 7.261413692560848e-14
    vertex 270.75467970855954 155.57753880263738 3.179999664934514e-14
    vertex 233.9733719780082 131.4912485851129 6.83841872017865e-14
  endloop
endfacet
facet normal 2.1709460322702427e-16 1.2931994050585541e-16 -1.0
  outer loop
    vertex 222.93500813627844 129.23276533398078 7.261413692560848e-14
    vertex 233.9733719780082 131.4912485851129 6.83841872017865e-14
    vertex 227.4188854458196 126.64873482131493 7.261413692560848e-14
  endloop
endfacet
facet normal 2.1709460322702427e-16 1.2931994050585541e-16 -1.0
  outer loop
    vertex 233.9733719780082 131.4912485851129 6.83841872017865e-14
    vertex 270.75467970855954 155.57753880263738 3.179999664934514e-14
    vertex 255.75467970855902 140.50142949960022 5.992428775414279e-14
  endloop
endfacet
facet normal 2.1709460322702427e-16 1.2931994050585541e-16 -1.0
  outer loop
    vertex 175.05944949190254 71.78344823592495 -1.40998324127395e-15
    vertex 220.4671356024939 86.78344823592484 1.127986593019159e-13
    vertex 270.75467970855954 71.78344823592495 1.127986593019159e-14
  endloop
endfacet
facet normal 2.1709460322702427e-16 1.2931994050585541e-16 -1.0
  outer loop
    vertex 220.4671356024939 86.78344823592484 1.127986593019159e-13
    vertex 175.05944949190254 71.78344823592495 -1.40998324127395e-15
    vertex 217.9413491671939 88.2226005190161 -3.5249581031848712e-15
  endloop
endfacet
facet normal 2.1709460322702427e-16 1.2931994050585541e-16 -1.0
  outer loop
    vertex 217.9413491671939 88.2226005190161 -3.5249581031848712e-15
    vertex 175.05944949190254 71.78344823592495 -1.40998324127395e-15
    vertex 214.8425007066922 92.6937779698968 -3.5249581031848712e-15
  endloop
endfacet
facet normal 2.1709460322702427e-16 1.2931994050585541e-16 -1.0
  outer loop
    vertex 214.8425007066922 92.6937779698968 -3.5249581031848712e-15
    vertex 175.05944949190254 71.78344823592495 -1.40998324127395e-15
    vertex 192.080865064412 135.8009831202078 4.511946372076643e-14
  endloop
endfacet
facet normal 2.1709460322702427e-16 1.2931994050585541e-16 -1.0
  outer loop
    vertex 192.080865064412 135.8009831202078 4.511946372076643e-14
    vertex 175.05944949190254 71.78344823592495 -1.40998324127395e-15
    vertex 190.0594494919022 140.57753880263718 8.318901123516309e-14
  endloop
endfacet
facet normal 2.1709460322702427e-16 1.2931994050585541e-16 -1.0
  outer loop
    vertex 214.8425007066922 92.6937779698968 -3.5249581031848712e-15
    vertex 192.080865064412 135.8009831202078 4.511946372076643e-14
    vertex 201.71500194069358 121.55571800871954 4.511946372076643e-14
  endloop
endfacet
facet normal 2.1709460322702427e-16 1.2931994050585541e-16 -1.0
  outer loop
    vertex 201.71500194069358 121.55571800871954 4.511946372076643e-14
    vertex 192.080865064412 135.8009831202078 4.511946372076643e-14
    vertex 200.59259327587236 124.35765927826397 4.511946372076643e-14
  endloop
endfacet
facet normal 2.1709460322702427e-16 1.2931994050585541e-16 -1.0
  outer loop
    vertex 214.8425007066922 92.6937779698968 -3.5249581031848712e-15
    vertex 201.71500194069358 121.55571800871954 4.511946372076643e-14
    vertex 214.52469031317472 109.57327478417736 4.511946372076643e-14
  endloop
endfacet
facet normal 2.1709460322702427e-16 1.2931994050585541e-16 -1.0
  outer loop
    vertex 270.75467970855954 71.78344823592495 1.127986593019159e-14
    vertex 220.4671356024939 86.78344823592484 1.127986593019159e-13
    vertex 224.8929522968551 86.7976556577234 1.127986593019159e-13
  endloop
endfacet
facet normal 2.1709460322702427e-16 1.2931994050585541e-16 -1.0
  outer loop
    vertex 270.75467970855954 71.78344823592495 1.127986593019159e-14
    vertex 224.8929522968551 86.7976556577234 1.127986593019159e-13
    vertex 227.50573959200966 88.18430166389419 2.8199664825479005e-14
  endloop
endfacet
facet normal 2.1709460322702427e-16 1.2931994050585541e-16 -1.0
  outer loop
    vertex 227.50573959200966 88.18430166389419 2.8199664825479005e-14
    vertex 224.8929522968551 86.7976556577234 1.127986593019159e-13
    vertex 224.97579628775608 100.20140822021125 -5.63993296509581e-15
  endloop
endfacet
facet normal 2.1709460322702427e-16 1.2931994050585541e-16 -1.0
  outer loop
    vertex 270.75467970855954 71.78344823592495 1.127986593019159e-14
    vertex 227.50573959200966 88.18430166389419 2.8199664825479005e-14
    vertex 230.5866931153579 92.71747094670404 -5.63993296509581e-15
  endloop
endfacet
facet normal 2.1709460322702427e-16 1.2931994050585541e-16 -1.0
  outer loop
    vertex 270.75467970855954 71.78344823592495 1.127986593019159e-14
    vertex 230.5866931153579 92.71747094670404 -5.63993296509581e-15
    vertex 231.09695895222544 109.70957101589615 4.511946372076643e-14
  endloop
endfacet
facet normal 2.1709460322702427e-16 1.2931994050585541e-16 -1.0
  outer loop
    vertex 270.75467970855954 71.78344823592495 1.127986593019159e-14
    vertex 231.09695895222544 109.70957101589615 4.511946372076643e-14
    vertex 243.98640937145512 121.50960600805807 4.511946372076643e-14
  endloop
endfacet
facet normal 2.1709460322702427e-16 1.2931994050585541e-16 -1.0
  outer loop
    vertex 270.75467970855954 71.78344823592495 1.127986593019159e-14
    vertex 243.98640937145512 121.50960600805807 4.511946372076643e-14
    vertex 245.0446735055753 124.43429396688106 1.127986593019159e-14
  endloop
endfacet
facet normal 2.1709460322702427e-16 1.2931994050585541e-16 -1.0
  outer loop
    vertex 270.75467970855954 71.78344823592495 1.127986593019159e-14
    vertex 245.0446735055753 124.43429396688106 1.127986593019159e-14
    vertex 253.6860439187074 135.86337512936345 -2.255973186038318e-14
  endloop
endfacet
facet normal 2.1709460322702427e-16 1.2931994050585541e-16 -1.0
  outer loop
    vertex 270.75467970855954 71.78344823592495 1.127986593019159e-14
    vertex 253.6860439187074 135.86337512936345 -2.255973186038318e-14
    vertex 255.75467970855902 140.50142949960022 5.992428775414279e-14
  endloop
endfacet
facet normal 2.1709460322702427e-16 1.2931994050585541e-16 -1.0
  outer loop
    vertex 270.75467970855954 71.78344823592495 1.127986593019159e-14
    vertex 255.75467970855902 140.50142949960022 5.992428775414279e-14
    vertex 270.75467970855954 155.57753880263738 3.179999664934514e-14
  endloop
endfacet
facet normal 2.1709460322702427e-16 1.2931994050585541e-16 -1.0
  outer loop
    vertex 227.4188854458196 126.64873482131493 7.261413692560848e-14
    vertex 226.88560796648153 118.93292488265527 7.261413692560848e-14
    vertex 224.65340812061496 125.587003838375 7.261413692560848e-14
  endloop
endfacet
facet normal 2.1709460322702427e-16 1.2931994050585541e-16 -1.0
  outer loop
    vertex 226.88560796648153 118.93292488265527 7.261413692560848e-14
    vertex 227.4188854458196 126.64873482131493 7.261413692560848e-14
    vertex 233.9733719780082 131.4912485851129 6.83841872017865e-14
  endloop
endfacet
facet normal 2.1709460322702427e-16 1.2931994050585541e-16 -1.0
  outer loop
    vertex 220.46713560249398 100.2399437553455 -3.5249581031848712e-15
    vertex 220.4671356024939 86.78344823592484 1.127986593019159e-13
    vertex 217.9413491671939 88.2226005190161 -3.5249581031848712e-15
  endloop
endfacet
facet normal 2.1709460322702427e-16 1.2931994050585541e-16 -1.0
  outer loop
    vertex 220.4671356024939 86.78344823592484 1.127986593019159e-13
    vertex 220.46713560249398 100.2399437553455 -3.5249581031848712e-15
    vertex 222.75986954368943 97.97735739284897 1.127986593019159e-13
  endloop
endfacet
facet normal 2.1709460322702427e-16 1.2931994050585541e-16 -1.0
  outer loop
    vertex 209.1484437921771 118.9125068777316 4.511946372076643e-14
    vertex 201.71500194069358 121.55571800871954 4.511946372076643e-14
    vertex 200.59259327587236 124.35765927826397 4.511946372076643e-14
  endloop
endfacet
facet normal 2.1709460322702427e-16 1.2931994050585541e-16 -1.0
  outer loop
    vertex 201.71500194069358 121.55571800871954 4.511946372076643e-14
    vertex 209.1484437921771 118.9125068777316 4.511946372076643e-14
    vertex 210.9036453914404 115.8767941403965 4.511946372076643e-14
  endloop
endfacet
endsolid Template - sentinel logo
