solid Template - broadsword logo
facet normal 0.0 1.0 0.0
  outer loop
    vertex 190.75467970855976 155.57753880263738 1.000000071525582
    vertex 257.7546797085599 155.57753880263738 3.179999664934514e-14
    vertex 190.75467970855976 155.57753880263738 -1.40998324127395e-15
  endloop
endfacet
facet normal 0.0 1.0 0.0
  outer loop
    vertex 257.7546797085599 155.57753880263738 3.179999664934514e-14
    vertex 190.75467970855976 155.57753880263738 1.000000071525582
    vertex 257.7546797085599 155.57753880263738 1.0000000715256214
  endloop
endfacet
facet normal 0.0 -1.0 0.0
  outer loop
    vertex 257.7546797085599 84.92645180263747 1.127986593019159e-14
    vertex 190.75467970855976 84.92645180263747 1.000000071525582
    vertex 190.75467970855976 84.92645180263747 -1.40998324127395e-15
  endloop
endfacet
facet normal 0.0 -1.0 0.0
  outer loop
    vertex 190.75467970855976 84.92645180263747 1.000000071525582
    vertex 257.7546797085599 84.92645180263747 1.127986593019159e-14
    vertex 257.7546797085599 84.92645180263747 1.000000071525596
  endloop
endfacet
facet normal -1.0 0.0 0.0
  outer loop
    vertex 190.75467970855976 155.57753880263738 1.000000071525582
    vertex 190.75467970855976 84.92645180263747 -1.40998324127395e-15
    vertex 190.75467970855976 84.92645180263747 1.000000071525582
  endloop
endfacet
facet normal -1.0 0.0 0.0
  outer loop
    vertex 190.75467970855976 84.92645180263747 -1.40998324127395e-15
    vertex 190.75467970855976 155.57753880263738 1.000000071525582
    vertex 190.75467970855976 155.57753880263738 -1.40998324127395e-15
  endloop
endfacet
facet normal 1.0 0.0 0.0
  outer loop
    vertex 257.7546797085599 155.57753880263738 3.179999664934514e-14
    vertex 257.7546797085599 84.92645180263747 1.000000071525596
    vertex 257.7546797085599 84.92645180263747 1.127986593019159e-14
  endloop
endfacet
facet normal 1.0 0.0 0.0
  outer loop
    vertex 257.7546797085599 84.92645180263747 1.000000071525596
    vertex 257.7546797085599 155.57753880263738 3.179999664934514e-14
    vertex 257.7546797085599 155.57753880263738 1.0000000715256214
  endloop
endfacet
facet normal 2.1709460322702427e-16 1.2931994050585541e-16 -1.0
  outer loop
    vertex 235.89075643450195 120.65122336732773 -1.0398626404395372e-14
    vertex 227.64524236880078 98.15122336732772 -1.6038559369491168e-14
    vertex 227.64524236880078 130.63328758993543 -1.6038559369491168e-14
  endloop
endfacet
facet normal 2.1709460322702427e-16 1.2931994050585541e-16 -1.0
  outer loop
    vertex 190.75467970855976 155.57753880263738 -1.40998324127395e-15
    vertex 205.51150320526975 124.91653357216225 8.81239525796218e-16
    vertex 190.75467970855976 84.92645180263747 -1.40998324127395e-15
  endloop
endfacet
facet normal 2.1709460322702427e-16 1.2931994050585541e-16 -1.0
  outer loop
    vertex 205.51150320526975 124.91653357216225 8.81239525796218e-16
    vertex 190.75467970855976 155.57753880263738 -1.40998324127395e-15
    vertex 205.97724965429632 125.79461212360671 8.81239525796218e-16
  endloop
endfacet
facet normal 2.1709460322702427e-16 1.2931994050585541e-16 -1.0
  outer loop
    vertex 205.97724965429632 125.79461212360671 8.81239525796218e-16
    vertex 190.75467970855976 155.57753880263738 -1.40998324127395e-15
    vertex 221.3952735312048 143.79775294624082 8.81239525796218e-16
  endloop
endfacet
facet normal 2.1709460322702427e-16 1.2931994050585541e-16 -1.0
  outer loop
    vertex 221.3952735312048 143.79775294624082 8.81239525796218e-16
    vertex 190.75467970855976 155.57753880263738 -1.40998324127395e-15
    vertex 222.00500129992884 144.3555124357802 8.81239525796218e-16
  endloop
endfacet
facet normal 2.1709460322702427e-16 1.2931994050585541e-16 -1.0
  outer loop
    vertex 222.00500129992884 144.3555124357802 8.81239525796218e-16
    vertex 190.75467970855976 155.57753880263738 -1.40998324127395e-15
    vertex 222.7325828715243 144.7472887199004 -4.758693439299577e-15
  endloop
endfacet
facet normal 2.1709460322702427e-16 1.2931994050585541e-16 -1.0
  outer loop
    vertex 222.7325828715243 144.7472887199004 -4.758693439299577e-15
    vertex 190.75467970855976 155.57753880263738 -1.40998324127395e-15
    vertex 257.7546797085599 155.57753880263738 3.179999664934514e-14
  endloop
endfacet
facet normal 2.1709460322702427e-16 1.2931994050585541e-16 -1.0
  outer loop
    vertex 190.75467970855976 84.92645180263747 -1.40998324127395e-15
    vertex 205.51150320526975 124.91653357216225 8.81239525796218e-16
    vertex 205.28889013386237 123.94783077061467 8.81239525796218e-16
  endloop
endfacet
facet normal 2.1709460322702427e-16 1.2931994050585541e-16 -1.0
  outer loop
    vertex 205.97724965429632 125.79461212360671 8.81239525796218e-16
    vertex 221.3952735312048 143.79775294624082 8.81239525796218e-16
    vertex 206.65438963012332 126.52222682276044 -4.758693439299577e-15
  endloop
endfacet
facet normal 2.1709460322702427e-16 1.2931994050585541e-16 -1.0
  outer loop
    vertex 222.7325828715243 144.7472887199004 -4.758693439299577e-15
    vertex 257.7546797085599 155.57753880263738 3.179999664934514e-14
    vertex 223.53386456860795 144.94930664495442 -4.758693439299577e-15
  endloop
endfacet
facet normal 2.1709460322702427e-16 1.2931994050585541e-16 -1.0
  outer loop
    vertex 223.53386456860795 144.94930664495442 -4.758693439299577e-15
    vertex 257.7546797085599 155.57753880263738 3.179999664934514e-14
    vertex 224.36022018220567 144.94930664495442 -1.0398626404395372e-14
  endloop
endfacet
facet normal 2.1709460322702427e-16 1.2931994050585541e-16 -1.0
  outer loop
    vertex 224.36022018220567 144.94930664495442 -1.0398626404395372e-14
    vertex 257.7546797085599 155.57753880263738 3.179999664934514e-14
    vertex 225.16150187928932 144.74728871990038 -1.0398626404395372e-14
  endloop
endfacet
facet normal 2.1709460322702427e-16 1.2931994050585541e-16 -1.0
  outer loop
    vertex 225.16150187928932 144.74728871990038 -1.0398626404395372e-14
    vertex 257.7546797085599 155.57753880263738 3.179999664934514e-14
    vertex 225.88908345088478 144.35551243578016 -1.6038559369491168e-14
  endloop
endfacet
facet normal 2.1709460322702427e-16 1.2931994050585541e-16 -1.0
  outer loop
    vertex 225.88908345088478 144.35551243578016 -1.6038559369491168e-14
    vertex 257.7546797085599 155.57753880263738 3.179999664934514e-14
    vertex 226.49881121960883 143.79775294624082 -2.1678492334586962e-14
  endloop
endfacet
facet normal 2.1709460322702427e-16 1.2931994050585541e-16 -1.0
  outer loop
    vertex 226.49881121960883 143.79775294624082 -2.1678492334586962e-14
    vertex 257.7546797085599 155.57753880263738 3.179999664934514e-14
    vertex 240.8336034859614 126.44397536397385 -4.758693439299577e-15
  endloop
endfacet
facet normal 2.1709460322702427e-16 1.2931994050585541e-16 -1.0
  outer loop
    vertex 240.8336034859614 126.44397536397385 -4.758693439299577e-15
    vertex 257.7546797085599 155.57753880263738 3.179999664934514e-14
    vertex 241.4990290497571 125.70563226916413 -4.758693439299577e-15
  endloop
endfacet
facet normal 2.1709460322702427e-16 1.2931994050585541e-16 -1.0
  outer loop
    vertex 241.4990290497571 125.70563226916413 -4.758693439299577e-15
    vertex 257.7546797085599 155.57753880263738 3.179999664934514e-14
    vertex 241.95068353144413 124.82022279565594 -4.758693439299577e-15
  endloop
endfacet
facet normal 2.1709460322702427e-16 1.2931994050585541e-16 -1.0
  outer loop
    vertex 241.95068353144413 124.82022279565594 -4.758693439299577e-15
    vertex 257.7546797085599 155.57753880263738 3.179999664934514e-14
    vertex 242.15778742419957 123.84808613642971 -4.758693439299577e-15
  endloop
endfacet
facet normal 2.1709460322702427e-16 1.2931994050585541e-16 -1.0
  outer loop
    vertex 190.75467970855976 84.92645180263747 -1.40998324127395e-15
    vertex 223.0607888664646 94.4952436966459 -1.6038559369491168e-14
    vertex 257.7546797085599 84.92645180263747 1.127986593019159e-14
  endloop
endfacet
facet normal 2.1709460322702427e-16 1.2931994050585541e-16 -1.0
  outer loop
    vertex 223.0607888664646 94.4952436966459 -1.6038559369491168e-14
    vertex 190.75467970855976 84.92645180263747 -1.40998324127395e-15
    vertex 221.55715561183052 95.21935530807261 -1.6038559369491168e-14
  endloop
endfacet
facet normal 2.1709460322702427e-16 1.2931994050585541e-16 -1.0
  outer loop
    vertex 221.55715561183052 95.21935530807261 -1.6038559369491168e-14
    vertex 190.75467970855976 84.92645180263747 -1.40998324127395e-15
    vertex 220.51660911416664 96.52415934563685 -1.6038559369491168e-14
  endloop
endfacet
facet normal 2.1709460322702427e-16 1.2931994050585541e-16 -1.0
  outer loop
    vertex 220.51660911416664 96.52415934563685 -1.6038559369491168e-14
    vertex 190.75467970855976 84.92645180263747 -1.40998324127395e-15
    vertex 205.6161439787257 122.00429144347123 8.81239525796218e-16
  endloop
endfacet
facet normal 2.1709460322702427e-16 1.2931994050585541e-16 -1.0
  outer loop
    vertex 205.6161439787257 122.00429144347123 8.81239525796218e-16
    vertex 190.75467970855976 84.92645180263747 -1.40998324127395e-15
    vertex 205.3245811530051 122.95451921403226 8.81239525796218e-16
  endloop
endfacet
facet normal 2.1709460322702427e-16 1.2931994050585541e-16 -1.0
  outer loop
    vertex 205.3245811530051 122.95451921403226 8.81239525796218e-16
    vertex 190.75467970855976 84.92645180263747 -1.40998324127395e-15
    vertex 205.28889013386237 123.94783077061467 8.81239525796218e-16
  endloop
endfacet
facet normal 2.1709460322702427e-16 1.2931994050585541e-16 -1.0
  outer loop
    vertex 220.51660911416664 96.52415934563685 -1.6038559369491168e-14
    vertex 205.6161439787257 122.00429144347123 8.81239525796218e-16
    vertex 206.14370908628152 121.16190391116957 8.81239525796218e-16
  endloop
endfacet
facet normal 2.1709460322702427e-16 1.2931994050585541e-16 -1.0
  outer loop
    vertex 220.51660911416664 96.52415934563685 -1.6038559369491168e-14
    vertex 206.14370908628152 121.16190391116957 8.81239525796218e-16
    vertex 206.87132378543527 120.48476393534251 -4.758693439299577e-15
  endloop
endfacet
facet normal 2.1709460322702427e-16 1.2931994050585541e-16 -1.0
  outer loop
    vertex 220.51660911416664 96.52415934563685 -1.6038559369491168e-14
    vertex 206.87132378543527 120.48476393534251 -4.758693439299577e-15
    vertex 207.74940233687968 120.01901748631589 -1.0398626404395372e-14
  endloop
endfacet
facet normal 2.1709460322702427e-16 1.2931994050585541e-16 -1.0
  outer loop
    vertex 220.51660911416664 96.52415934563685 -1.6038559369491168e-14
    vertex 207.74940233687968 120.01901748631589 -1.0398626404395372e-14
    vertex 208.7181051384273 119.79640441490857 -1.0398626404395372e-14
  endloop
endfacet
facet normal 2.1709460322702427e-16 1.2931994050585541e-16 -1.0
  outer loop
    vertex 220.51660911416664 96.52415934563685 -1.6038559369491168e-14
    vertex 208.7181051384273 119.79640441490857 -1.0398626404395372e-14
    vertex 209.71141669500966 119.8320954340514 -1.6038559369491168e-14
  endloop
endfacet
facet normal 2.1709460322702427e-16 1.2931994050585541e-16 -1.0
  outer loop
    vertex 220.51660911416664 96.52415934563685 -1.6038559369491168e-14
    vertex 209.71141669500966 119.8320954340514 -1.6038559369491168e-14
    vertex 210.6616444655708 120.12365825977193 -2.1678492334586962e-14
  endloop
endfacet
facet normal 2.1709460322702427e-16 1.2931994050585541e-16 -1.0
  outer loop
    vertex 220.51660911416664 96.52415934563685 -1.6038559369491168e-14
    vertex 210.6616444655708 120.12365825977193 -2.1678492334586962e-14
    vertex 211.5040319978724 120.65122336732777 -2.1678492334586962e-14
  endloop
endfacet
facet normal 2.1709460322702427e-16 1.2931994050585541e-16 -1.0
  outer loop
    vertex 220.51660911416664 96.52415934563685 -1.6038559369491168e-14
    vertex 211.5040319978724 120.65122336732777 -2.1678492334586962e-14
    vertex 220.1452423688008 98.15122336732772 -1.6038559369491168e-14
  endloop
endfacet
facet normal 2.1709460322702427e-16 1.2931994050585541e-16 -1.0
  outer loop
    vertex 220.1452423688008 98.15122336732772 -1.6038559369491168e-14
    vertex 211.5040319978724 120.65122336732777 -2.1678492334586962e-14
    vertex 220.1452423688008 130.7782589306776 -2.7318425299682758e-14
  endloop
endfacet
facet normal 2.1709460322702427e-16 1.2931994050585541e-16 -1.0
  outer loop
    vertex 257.7546797085599 84.92645180263747 1.127986593019159e-14
    vertex 223.0607888664646 94.4952436966459 -1.6038559369491168e-14
    vertex 224.72969587113698 94.4952436966459 -1.6038559369491168e-14
  endloop
endfacet
facet normal 2.1709460322702427e-16 1.2931994050585541e-16 -1.0
  outer loop
    vertex 257.7546797085599 84.92645180263747 1.127986593019159e-14
    vertex 224.72969587113698 94.4952436966459 -1.6038559369491168e-14
    vertex 226.23332912577106 95.21935530807261 -1.6038559369491168e-14
  endloop
endfacet
facet normal 2.1709460322702427e-16 1.2931994050585541e-16 -1.0
  outer loop
    vertex 257.7546797085599 84.92645180263747 1.127986593019159e-14
    vertex 226.23332912577106 95.21935530807261 -1.6038559369491168e-14
    vertex 227.27387562343486 96.52415934563685 -1.6038559369491168e-14
  endloop
endfacet
facet normal 2.1709460322702427e-16 1.2931994050585541e-16 -1.0
  outer loop
    vertex 257.7546797085599 84.92645180263747 1.127986593019159e-14
    vertex 227.27387562343486 96.52415934563685 -1.6038559369491168e-14
    vertex 227.64524236880078 98.15122336732772 -1.6038559369491168e-14
  endloop
endfacet
facet normal 2.1709460322702427e-16 1.2931994050585541e-16 -1.0
  outer loop
    vertex 257.7546797085599 84.92645180263747 1.127986593019159e-14
    vertex 227.64524236880078 98.15122336732772 -1.6038559369491168e-14
    vertex 235.89075643450195 120.65122336732773 -1.0398626404395372e-14
  endloop
endfacet
facet normal 2.1709460322702427e-16 1.2931994050585541e-16 -1.0
  outer loop
    vertex 257.7546797085599 84.92645180263747 1.127986593019159e-14
    vertex 235.89075643450195 120.65122336732773 -1.0398626404395372e-14
    vertex 236.7246054194127 120.11026350100732 -4.758693439299577e-15
  endloop
endfacet
facet normal 2.1709460322702427e-16 1.2931994050585541e-16 -1.0
  outer loop
    vertex 257.7546797085599 84.92645180263747 1.127986593019159e-14
    vertex 236.7246054194127 120.11026350100732 -4.758693439299577e-15
    vertex 237.67005240558362 119.80355239435093 -4.758693439299577e-15
  endloop
endfacet
facet normal 2.1709460322702427e-16 1.2931994050585541e-16 -1.0
  outer loop
    vertex 257.7546797085599 84.92645180263747 1.127986593019159e-14
    vertex 237.67005240558362 119.80355239435093 -4.758693439299577e-15
    vertex 238.66266674272435 119.7519919026102 -4.758693439299577e-15
  endloop
endfacet
facet normal 2.1709460322702427e-16 1.2931994050585541e-16 -1.0
  outer loop
    vertex 257.7546797085599 84.92645180263747 1.127986593019159e-14
    vertex 238.66266674272435 119.7519919026102 -4.758693439299577e-15
    vertex 239.63480340349363 119.95909578812271 -4.758693439299577e-15
  endloop
endfacet
facet normal 2.1709460322702427e-16 1.2931994050585541e-16 -1.0
  outer loop
    vertex 257.7546797085599 84.92645180263747 1.127986593019159e-14
    vertex 239.63480340349363 119.95909578812271 -4.758693439299577e-15
    vertex 240.52021288036696 120.41075026321295 -4.758693439299577e-15
  endloop
endfacet
facet normal 2.1709460322702427e-16 1.2931994050585541e-16 -1.0
  outer loop
    vertex 257.7546797085599 84.92645180263747 1.127986593019159e-14
    vertex 240.52021288036696 120.41075026321295 -4.758693439299577e-15
    vertex 241.2585559801344 121.07617582150753 -4.758693439299577e-15
  endloop
endfacet
facet normal 2.1709460322702427e-16 1.2931994050585541e-16 -1.0
  outer loop
    vertex 257.7546797085599 84.92645180263747 1.127986593019159e-14
    vertex 241.2585559801344 121.07617582150753 -4.758693439299577e-15
    vertex 241.79951584024212 121.91002481044872 -4.758693439299577e-15
  endloop
endfacet
facet normal 2.1709460322702427e-16 1.2931994050585541e-16 -1.0
  outer loop
    vertex 257.7546797085599 84.92645180263747 1.127986593019159e-14
    vertex 241.79951584024212 121.91002481044872 -4.758693439299577e-15
    vertex 242.10622693985442 122.85547179890477 -4.758693439299577e-15
  endloop
endfacet
facet normal 2.1709460322702427e-16 1.2931994050585541e-16 -1.0
  outer loop
    vertex 257.7546797085599 84.92645180263747 1.127986593019159e-14
    vertex 242.10622693985442 122.85547179890477 -4.758693439299577e-15
    vertex 242.15778742419957 123.84808613642971 -4.758693439299577e-15
  endloop
endfacet
facet normal 2.1709460322702427e-16 1.2931994050585541e-16 -1.0
  outer loop
    vertex 257.7546797085599 84.92645180263747 1.127986593019159e-14
    vertex 242.15778742419957 123.84808613642971 -4.758693439299577e-15
    vertex 257.7546797085599 155.57753880263738 3.179999664934514e-14
  endloop
endfacet
facet normal -1.7750632828699473e-16 -1.1802733311914924e-16 1.0
  outer loop
    vertex 190.75467970855976 84.92645180263747 1.000000071525582
    vertex 205.6161439787257 122.00429144347123 1.00000007152559
    vertex 190.75467970855976 155.57753880263738 1.000000071525582
  endloop
endfacet
facet normal -1.7750632828699473e-16 -1.1802733311914924e-16 1.0
  outer loop
    vertex 205.6161439787257 122.00429144347123 1.00000007152559
    vertex 190.75467970855976 84.92645180263747 1.000000071525582
    vertex 220.51660911416664 96.52415934563685 1.000000071525571
  endloop
endfacet
facet normal -1.7750632828699473e-16 -1.1802733311914924e-16 1.0
  outer loop
    vertex 220.51660911416664 96.52415934563685 1.000000071525571
    vertex 190.75467970855976 84.92645180263747 1.000000071525582
    vertex 221.55715561183052 95.21935530807261 1.000000071525571
  endloop
endfacet
facet normal -1.7750632828699473e-16 -1.1802733311914924e-16 1.0
  outer loop
    vertex 221.55715561183052 95.21935530807261 1.000000071525571
    vertex 190.75467970855976 84.92645180263747 1.000000071525582
    vertex 223.0607888664646 94.4952436966459 1.000000071525571
  endloop
endfacet
facet normal -1.7750632828699473e-16 -1.1802733311914924e-16 1.0
  outer loop
    vertex 223.0607888664646 94.4952436966459 1.000000071525571
    vertex 190.75467970855976 84.92645180263747 1.000000071525582
    vertex 257.7546797085599 84.92645180263747 1.000000071525596
  endloop
endfacet
facet normal -1.7750632828699473e-16 -1.1802733311914924e-16 1.0
  outer loop
    vertex 190.75467970855976 155.57753880263738 1.000000071525582
    vertex 205.6161439787257 122.00429144347123 1.00000007152559
    vertex 205.3245811530051 122.95451921403226 1.0000000715255908
  endloop
endfacet
facet normal -1.7750632828699473e-16 -1.1802733311914924e-16 1.0
  outer loop
    vertex 190.75467970855976 155.57753880263738 1.000000071525582
    vertex 205.3245811530051 122.95451921403226 1.0000000715255908
    vertex 205.28889013386237 123.94783077061467 1.000000071525591
  endloop
endfacet
facet normal -1.7750632828699473e-16 -1.1802733311914924e-16 1.0
  outer loop
    vertex 205.6161439787257 122.00429144347123 1.00000007152559
    vertex 220.51660911416664 96.52415934563685 1.000000071525571
    vertex 206.14370908628152 121.16190391116957 1.0000000715255877
  endloop
endfacet
facet normal -1.7750632828699473e-16 -1.1802733311914924e-16 1.0
  outer loop
    vertex 206.14370908628152 121.16190391116957 1.0000000715255877
    vertex 220.51660911416664 96.52415934563685 1.000000071525571
    vertex 206.87132378543527 120.48476393534251 1.0000000715255846
  endloop
endfacet
facet normal -1.7750632828699473e-16 -1.1802733311914924e-16 1.0
  outer loop
    vertex 206.87132378543527 120.48476393534251 1.0000000715255846
    vertex 220.51660911416664 96.52415934563685 1.000000071525571
    vertex 207.74940233687968 120.01901748631589 1.0000000715255812
  endloop
endfacet
facet normal -1.7750632828699473e-16 -1.1802733311914924e-16 1.0
  outer loop
    vertex 207.74940233687968 120.01901748631589 1.0000000715255812
    vertex 220.51660911416664 96.52415934563685 1.000000071525571
    vertex 208.7181051384273 119.79640441490857 1.0000000715255772
  endloop
endfacet
facet normal -1.7750632828699473e-16 -1.1802733311914924e-16 1.0
  outer loop
    vertex 208.7181051384273 119.79640441490857 1.0000000715255772
    vertex 220.51660911416664 96.52415934563685 1.000000071525571
    vertex 209.71141669500966 119.8320954340514 1.0000000715255735
  endloop
endfacet
facet normal -1.7750632828699473e-16 -1.1802733311914924e-16 1.0
  outer loop
    vertex 209.71141669500966 119.8320954340514 1.0000000715255735
    vertex 220.51660911416664 96.52415934563685 1.000000071525571
    vertex 210.6616444655708 120.12365825977193 1.0000000715255695
  endloop
endfacet
facet normal -1.7750632828699473e-16 -1.1802733311914924e-16 1.0
  outer loop
    vertex 210.6616444655708 120.12365825977193 1.0000000715255695
    vertex 220.51660911416664 96.52415934563685 1.000000071525571
    vertex 211.5040319978724 120.65122336732777 1.0000000715255661
  endloop
endfacet
facet normal -1.7750632828699473e-16 -1.1802733311914924e-16 1.0
  outer loop
    vertex 211.5040319978724 120.65122336732777 1.0000000715255661
    vertex 220.51660911416664 96.52415934563685 1.000000071525571
    vertex 220.1452423688008 98.15122336732772 1.000000071525571
  endloop
endfacet
facet normal -1.7750632828699473e-16 -1.1802733311914924e-16 1.0
  outer loop
    vertex 223.0607888664646 94.4952436966459 1.000000071525571
    vertex 257.7546797085599 84.92645180263747 1.000000071525596
    vertex 224.72969587113698 94.4952436966459 1.000000071525571
  endloop
endfacet
facet normal -1.7750632828699473e-16 -1.1802733311914924e-16 1.0
  outer loop
    vertex 224.72969587113698 94.4952436966459 1.000000071525571
    vertex 257.7546797085599 84.92645180263747 1.000000071525596
    vertex 226.23332912577106 95.21935530807261 1.0000000715255712
  endloop
endfacet
facet normal -1.7750632828699473e-16 -1.1802733311914924e-16 1.0
  outer loop
    vertex 226.23332912577106 95.21935530807261 1.0000000715255712
    vertex 257.7546797085599 84.92645180263747 1.000000071525596
    vertex 227.27387562343486 96.52415934563685 1.0000000715255712
  endloop
endfacet
facet normal -1.7750632828699473e-16 -1.1802733311914924e-16 1.0
  outer loop
    vertex 227.27387562343486 96.52415934563685 1.0000000715255712
    vertex 257.7546797085599 84.92645180263747 1.000000071525596
    vertex 227.64524236880078 98.15122336732772 1.0000000715255712
  endloop
endfacet
facet normal -1.7750632828699473e-16 -1.1802733311914924e-16 1.0
  outer loop
    vertex 227.64524236880078 98.15122336732772 1.0000000715255712
    vertex 257.7546797085599 84.92645180263747 1.000000071525596
    vertex 227.64524236880078 130.63328758993543 1.0000000715255706
  endloop
endfacet
facet normal -1.7750632828699473e-16 -1.1802733311914924e-16 1.0
  outer loop
    vertex 227.64524236880078 130.63328758993543 1.0000000715255706
    vertex 257.7546797085599 84.92645180263747 1.000000071525596
    vertex 235.89075643450195 120.65122336732773 1.0000000715255803
  endloop
endfacet
facet normal -1.7750632828699473e-16 -1.1802733311914924e-16 1.0
  outer loop
    vertex 235.89075643450195 120.65122336732773 1.0000000715255803
    vertex 257.7546797085599 84.92645180263747 1.000000071525596
    vertex 236.7246054194127 120.11026350100732 1.0000000715255815
  endloop
endfacet
facet normal -1.7750632828699473e-16 -1.1802733311914924e-16 1.0
  outer loop
    vertex 236.7246054194127 120.11026350100732 1.0000000715255815
    vertex 257.7546797085599 84.92645180263747 1.000000071525596
    vertex 237.67005240558362 119.80355239435093 1.0000000715255828
  endloop
endfacet
facet normal -1.7750632828699473e-16 -1.1802733311914924e-16 1.0
  outer loop
    vertex 237.67005240558362 119.80355239435093 1.0000000715255828
    vertex 257.7546797085599 84.92645180263747 1.000000071525596
    vertex 238.66266674272435 119.7519919026102 1.000000071525584
  endloop
endfacet
facet normal -1.7750632828699473e-16 -1.1802733311914924e-16 1.0
  outer loop
    vertex 238.66266674272435 119.7519919026102 1.000000071525584
    vertex 257.7546797085599 84.92645180263747 1.000000071525596
    vertex 239.63480340349363 119.95909578812271 1.0000000715255846
  endloop
endfacet
facet normal -1.7750632828699473e-16 -1.1802733311914924e-16 1.0
  outer loop
    vertex 239.63480340349363 119.95909578812271 1.0000000715255846
    vertex 257.7546797085599 84.92645180263747 1.000000071525596
    vertex 240.52021288036696 120.41075026321295 1.0000000715255855
  endloop
endfacet
facet normal -1.7750632828699473e-16 -1.1802733311914924e-16 1.0
  outer loop
    vertex 240.52021288036696 120.41075026321295 1.0000000715255855
    vertex 257.7546797085599 84.92645180263747 1.000000071525596
    vertex 241.2585559801344 121.07617582150753 1.000000071525586
  endloop
endfacet
facet normal -1.7750632828699473e-16 -1.1802733311914924e-16 1.0
  outer loop
    vertex 241.2585559801344 121.07617582150753 1.000000071525586
    vertex 257.7546797085599 84.92645180263747 1.000000071525596
    vertex 241.79951584024212 121.91002481044872 1.0000000715255861
  endloop
endfacet
facet normal -1.7750632828699473e-16 -1.1802733311914924e-16 1.0
  outer loop
    vertex 241.79951584024212 121.91002481044872 1.0000000715255861
    vertex 257.7546797085599 84.92645180263747 1.000000071525596
    vertex 242.10622693985442 122.85547179890477 1.000000071525586
  endloop
endfacet
facet normal -1.7750632828699473e-16 -1.1802733311914924e-16 1.0
  outer loop
    vertex 242.10622693985442 122.85547179890477 1.000000071525586
    vertex 257.7546797085599 84.92645180263747 1.000000071525596
    vertex 242.15778742419957 123.84808613642971 1.0000000715255855
  endloop
endfacet
facet normal -1.7750632828699473e-16 -1.1802733311914924e-16 1.0
  outer loop
    vertex 190.75467970855976 155.57753880263738 1.000000071525582
    vertex 222.7325828715243 144.7472887199004 1.0000000715255868
    vertex 257.7546797085599 155.57753880263738 1.0000000715256214
  endloop
endfacet
facet normal -1.7750632828699473e-16 -1.1802733311914924e-16 1.0
  outer loop
    vertex 222.7325828715243 144.7472887199004 1.0000000715255868
    vertex 190.75467970855976 155.57753880263738 1.000000071525582
    vertex 222.00500129992884 144.3555124357802 1.0000000715255883
  endloop
endfacet
facet normal -1.7750632828699473e-16 -1.1802733311914924e-16 1.0
  outer loop
    vertex 222.00500129992884 144.3555124357802 1.0000000715255883
    vertex 190.75467970855976 155.57753880263738 1.000000071525582
    vertex 221.3952735312048 143.79775294624082 1.000000071525589
  endloop
endfacet
facet normal -1.7750632828699473e-16 -1.1802733311914924e-16 1.0
  outer loop
    vertex 221.3952735312048 143.79775294624082 1.000000071525589
    vertex 190.75467970855976 155.57753880263738 1.000000071525582
    vertex 205.97724965429632 125.79461212360671 1.0000000715255881
  endloop
endfacet
facet normal -1.7750632828699473e-16 -1.1802733311914924e-16 1.0
  outer loop
    vertex 205.97724965429632 125.79461212360671 1.0000000715255881
    vertex 190.75467970855976 155.57753880263738 1.000000071525582
    vertex 205.51150320526975 124.91653357216225 1.0000000715255901
  endloop
endfacet
facet normal -1.7750632828699473e-16 -1.1802733311914924e-16 1.0
  outer loop
    vertex 205.51150320526975 124.91653357216225 1.0000000715255901
    vertex 190.75467970855976 155.57753880263738 1.000000071525582
    vertex 205.28889013386237 123.94783077061467 1.000000071525591
  endloop
endfacet
facet normal -1.7750632828699473e-16 -1.1802733311914924e-16 1.0
  outer loop
    vertex 221.3952735312048 143.79775294624082 1.000000071525589
    vertex 205.97724965429632 125.79461212360671 1.0000000715255881
    vertex 206.65438963012332 126.52222682276044 1.0000000715255855
  endloop
endfacet
facet normal -1.7750632828699473e-16 -1.1802733311914924e-16 1.0
  outer loop
    vertex 257.7546797085599 155.57753880263738 1.0000000715256214
    vertex 222.7325828715243 144.7472887199004 1.0000000715255868
    vertex 223.53386456860795 144.94930664495442 1.0000000715255843
  endloop
endfacet
facet normal -1.7750632828699473e-16 -1.1802733311914924e-16 1.0
  outer loop
    vertex 257.7546797085599 155.57753880263738 1.0000000715256214
    vertex 223.53386456860795 144.94930664495442 1.0000000715255843
    vertex 224.36022018220567 144.94930664495442 1.0000000715255808
  endloop
endfacet
facet normal -1.7750632828699473e-16 -1.1802733311914924e-16 1.0
  outer loop
    vertex 257.7546797085599 155.57753880263738 1.0000000715256214
    vertex 224.36022018220567 144.94930664495442 1.0000000715255808
    vertex 225.16150187928932 144.74728871990038 1.0000000715255766
  endloop
endfacet
facet normal -1.7750632828699473e-16 -1.1802733311914924e-16 1.0
  outer loop
    vertex 257.7546797085599 155.57753880263738 1.0000000715256214
    vertex 225.16150187928932 144.74728871990038 1.0000000715255766
    vertex 225.88908345088478 144.35551243578016 1.000000071525572
  endloop
endfacet
facet normal -1.7750632828699473e-16 -1.1802733311914924e-16 1.0
  outer loop
    vertex 257.7546797085599 155.57753880263738 1.0000000715256214
    vertex 225.88908345088478 144.35551243578016 1.000000071525572
    vertex 226.49881121960883 143.79775294624082 1.0000000715255675
  endloop
endfacet
facet normal -1.7750632828699473e-16 -1.1802733311914924e-16 1.0
  outer loop
    vertex 257.7546797085599 155.57753880263738 1.0000000715256214
    vertex 226.49881121960883 143.79775294624082 1.0000000715255675
    vertex 240.8336034859614 126.44397536397385 1.0000000715255828
  endloop
endfacet
facet normal -1.7750632828699473e-16 -1.1802733311914924e-16 1.0
  outer loop
    vertex 257.7546797085599 155.57753880263738 1.0000000715256214
    vertex 240.8336034859614 126.44397536397385 1.0000000715255828
    vertex 241.4990290497571 125.70563226916413 1.000000071525584
  endloop
endfacet
facet normal -1.7750632828699473e-16 -1.1802733311914924e-16 1.0
  outer loop
    vertex 257.7546797085599 155.57753880263738 1.0000000715256214
    vertex 241.4990290497571 125.70563226916413 1.000000071525584
    vertex 241.95068353144413 124.82022279565594 1.0000000715255848
  endloop
endfacet
facet normal -1.7750632828699473e-16 -1.1802733311914924e-16 1.0
  outer loop
    vertex 257.7546797085599 155.57753880263738 1.0000000715256214
    vertex 241.95068353144413 124.82022279565594 1.0000000715255848
    vertex 242.15778742419957 123.84808613642971 1.0000000715255855
  endloop
endfacet
facet normal -1.7750632828699473e-16 -1.1802733311914924e-16 1.0
  outer loop
    vertex 257.7546797085599 155.57753880263738 1.0000000715256214
    vertex 242.15778742419957 123.84808613642971 1.0000000715255855
    vertex 257.7546797085599 84.92645180263747 1.000000071525596
  endloop
endfacet
facet normal -1.7750632828699473e-16 -1.1802733311914924e-16 1.0
  outer loop
    vertex 220.1452423688008 130.7782589306776 1.0000000715255632
    vertex 211.5040319978724 120.65122336732777 1.0000000715255661
    vertex 220.1452423688008 98.15122336732772 1.000000071525571
  endloop
endfacet
facet normal 1.0 1.0490995774054389e-33 4.4138512004357996e-18
  outer loop
    vertex 220.1452423688008 130.7782589306776 -2.7318425299682758e-14
    vertex 220.1452423688008 98.15122336732772 1.000000071525571
    vertex 220.1452423688008 98.15122336732772 -1.6038559369491168e-14
  endloop
endfacet
facet normal 1.0 1.0490995774054389e-33 4.4138512004357996e-18
  outer loop
    vertex 220.1452423688008 98.15122336732772 1.000000071525571
    vertex 220.1452423688008 130.7782589306776 -2.7318425299682758e-14
    vertex 220.1452423688008 130.7782589306776 1.0000000715255632
  endloop
endfacet
facet normal 0.9749279121818343 0.22252093395626768 4.805094595444354e-17
  outer loop
    vertex 220.1452423688008 98.15122336732772 -1.6038559369491168e-14
    vertex 220.51660911416664 96.52415934563685 1.000000071525571
    vertex 220.51660911416664 96.52415934563685 -1.6038559369491168e-14
  endloop
endfacet
facet normal 0.9749279121818343 0.22252093395626768 4.805094595444354e-17
  outer loop
    vertex 220.51660911416664 96.52415934563685 1.000000071525571
    vertex 220.1452423688008 98.15122336732772 -1.6038559369491168e-14
    vertex 220.1452423688008 98.15122336732772 1.000000071525571
  endloop
endfacet
facet normal 0.7818314824680129 0.6234898018587549 1.260293852398597e-16
  outer loop
    vertex 220.51660911416664 96.52415934563685 -1.6038559369491168e-14
    vertex 221.55715561183052 95.21935530807261 1.000000071525571
    vertex 221.55715561183052 95.21935530807261 -1.6038559369491168e-14
  endloop
endfacet
facet normal 0.7818314824680129 0.6234898018587549 1.260293852398597e-16
  outer loop
    vertex 221.55715561183052 95.21935530807261 1.000000071525571
    vertex 220.51660911416664 96.52415934563685 -1.6038559369491168e-14
    vertex 220.51660911416664 96.52415934563685 1.000000071525571
  endloop
endfacet
facet normal 0.4338837391175499 0.9009688679024231 1.7904615912952914e-16
  outer loop
    vertex 221.55715561183052 95.21935530807261 1.000000071525571
    vertex 223.0607888664646 94.4952436966459 -1.6038559369491168e-14
    vertex 221.55715561183052 95.21935530807261 -1.6038559369491168e-14
  endloop
endfacet
facet normal 0.4338837391175499 0.9009688679024231 1.7904615912952914e-16
  outer loop
    vertex 223.0607888664646 94.4952436966459 -1.6038559369491168e-14
    vertex 221.55715561183052 95.21935530807261 1.000000071525571
    vertex 223.0607888664646 94.4952436966459 1.000000071525571
  endloop
endfacet
facet normal -0.0 1.0 1.9660064534655957e-16
  outer loop
    vertex 223.0607888664646 94.4952436966459 1.000000071525571
    vertex 224.72969587113698 94.4952436966459 -1.6038559369491168e-14
    vertex 223.0607888664646 94.4952436966459 -1.6038559369491168e-14
  endloop
endfacet
facet normal -0.0 1.0 1.9660064534655957e-16
  outer loop
    vertex 224.72969587113698 94.4952436966459 -1.6038559369491168e-14
    vertex 223.0607888664646 94.4952436966459 1.000000071525571
    vertex 224.72969587113698 94.4952436966459 1.000000071525571
  endloop
endfacet
facet normal -0.4338837391175499 0.9009688679024231 1.7521596260402199e-16
  outer loop
    vertex 224.72969587113698 94.4952436966459 1.000000071525571
    vertex 226.23332912577106 95.21935530807261 -1.6038559369491168e-14
    vertex 224.72969587113698 94.4952436966459 -1.6038559369491168e-14
  endloop
endfacet
facet normal -0.4338837391175499 0.9009688679024231 1.7521596260402199e-16
  outer loop
    vertex 226.23332912577106 95.21935530807261 -1.6038559369491168e-14
    vertex 224.72969587113698 94.4952436966459 1.000000071525571
    vertex 226.23332912577106 95.21935530807261 1.0000000715255712
  endloop
endfacet
facet normal -0.781831482468026 0.6234898018587384 1.1912760958499649e-16
  outer loop
    vertex 227.27387562343486 96.52415934563685 1.0000000715255712
    vertex 226.23332912577106 95.21935530807261 -1.6038559369491168e-14
    vertex 226.23332912577106 95.21935530807261 1.0000000715255712
  endloop
endfacet
facet normal -0.781831482468026 0.6234898018587384 1.1912760958499649e-16
  outer loop
    vertex 226.23332912577106 95.21935530807261 -1.6038559369491168e-14
    vertex 227.27387562343486 96.52415934563685 1.0000000715255712
    vertex 227.27387562343486 96.52415934563685 -1.6038559369491168e-14
  endloop
endfacet
facet normal -0.9749279121818285 0.2225209339562934 3.944457248340431e-17
  outer loop
    vertex 227.64524236880078 98.15122336732772 1.0000000715255712
    vertex 227.27387562343486 96.52415934563685 -1.6038559369491168e-14
    vertex 227.27387562343486 96.52415934563685 1.0000000715255712
  endloop
endfacet
facet normal -0.9749279121818285 0.2225209339562934 3.944457248340431e-17
  outer loop
    vertex 227.27387562343486 96.52415934563685 -1.6038559369491168e-14
    vertex 227.64524236880078 98.15122336732772 1.0000000715255712
    vertex 227.64524236880078 98.15122336732772 -1.6038559369491168e-14
  endloop
endfacet
facet normal -1.0 -9.579834858155059e-35 -4.4138512004357996e-18
  outer loop
    vertex 227.64524236880078 130.63328758993543 1.0000000715255706
    vertex 227.64524236880078 98.15122336732772 -1.6038559369491168e-14
    vertex 227.64524236880078 98.15122336732772 1.0000000715255712
  endloop
endfacet
facet normal -1.0 -9.579834858155059e-35 -4.4138512004357996e-18
  outer loop
    vertex 227.64524236880078 98.15122336732772 -1.6038559369491168e-14
    vertex 227.64524236880078 130.63328758993543 1.0000000715255706
    vertex 227.64524236880078 130.63328758993543 -1.6038559369491168e-14
  endloop
endfacet
facet normal 0.7709821918619469 0.6368567027454044 1.2860943942609303e-16
  outer loop
    vertex 227.64524236880078 130.63328758993543 -1.6038559369491168e-14
    vertex 235.89075643450195 120.65122336732773 1.0000000715255803
    vertex 235.89075643450195 120.65122336732773 -1.0398626404395372e-14
  endloop
endfacet
facet normal 0.7709821918619469 0.6368567027454044 1.2860943942609303e-16
  outer loop
    vertex 235.89075643450195 120.65122336732773 1.0000000715255803
    vertex 227.64524236880078 130.63328758993543 -1.6038559369491168e-14
    vertex 227.64524236880078 130.63328758993543 1.0000000715255706
  endloop
endfacet
facet normal 0.5442511886009977 0.8389223108884405 1.673349114784396e-16
  outer loop
    vertex 235.89075643450195 120.65122336732773 1.0000000715255803
    vertex 236.7246054194127 120.11026350100732 -4.758693439299577e-15
    vertex 235.89075643450195 120.65122336732773 -1.0398626404395372e-14
  endloop
endfacet
facet normal 0.5442511886009977 0.8389223108884405 1.673349114784396e-16
  outer loop
    vertex 236.7246054194127 120.11026350100732 -4.758693439299577e-15
    vertex 235.89075643450195 120.65122336732773 1.0000000715255803
    vertex 236.7246054194127 120.11026350100732 1.0000000715255815
  endloop
endfacet
facet normal 0.30857720645769454 0.9511992996500606 1.883684100375478e-16
  outer loop
    vertex 236.7246054194127 120.11026350100732 1.0000000715255815
    vertex 237.67005240558362 119.80355239435093 -4.758693439299577e-15
    vertex 236.7246054194127 120.11026350100732 -4.758693439299577e-15
  endloop
endfacet
facet normal 0.30857720645769454 0.9511992996500606 1.883684100375478e-16
  outer loop
    vertex 237.67005240558362 119.80355239435093 -4.758693439299577e-15
    vertex 236.7246054194127 120.11026350100732 1.0000000715255815
    vertex 237.67005240558362 119.80355239435093 1.0000000715255828
  endloop
endfacet
facet normal 0.05187419744393438 0.998653627460266 1.9656491262503052e-16
  outer loop
    vertex 237.67005240558362 119.80355239435093 1.0000000715255828
    vertex 238.66266674272435 119.7519919026102 -4.758693439299577e-15
    vertex 237.67005240558362 119.80355239435093 -4.758693439299577e-15
  endloop
endfacet
facet normal 0.05187419744393438 0.998653627460266 1.9656491262503052e-16
  outer loop
    vertex 238.66266674272435 119.7519919026102 -4.758693439299577e-15
    vertex 237.67005240558362 119.80355239435093 1.0000000715255828
    vertex 238.66266674272435 119.7519919026102 1.000000071525584
  endloop
endfacet
facet normal -0.208363952432873 0.9780513602702833 1.9136584112964473e-16
  outer loop
    vertex 238.66266674272435 119.7519919026102 1.000000071525584
    vertex 239.63480340349363 119.95909578812271 -4.758693439299577e-15
    vertex 238.66266674272435 119.7519919026102 -4.758693439299577e-15
  endloop
endfacet
facet normal -0.208363952432873 0.9780513602702833 1.9136584112964473e-16
  outer loop
    vertex 239.63480340349363 119.95909578812271 -4.758693439299577e-15
    vertex 238.66266674272435 119.7519919026102 1.000000071525584
    vertex 239.63480340349363 119.95909578812271 1.0000000715255846
  endloop
endfacet
facet normal -0.45440244315503786 0.8907965085555359 1.731255036852796e-16
  outer loop
    vertex 239.63480340349363 119.95909578812271 1.0000000715255846
    vertex 240.52021288036696 120.41075026321295 -4.758693439299577e-15
    vertex 239.63480340349363 119.95909578812271 -4.758693439299577e-15
  endloop
endfacet
facet normal -0.45440244315503786 0.8907965085555359 1.731255036852796e-16
  outer loop
    vertex 240.52021288036696 120.41075026321295 -4.758693439299577e-15
    vertex 239.63480340349363 119.95909578812271 1.0000000715255846
    vertex 240.52021288036696 120.41075026321295 1.0000000715255855
  endloop
endfacet
facet normal -0.6694741580197926 0.742835346320899 1.4308694915688736e-16
  outer loop
    vertex 240.52021288036696 120.41075026321295 1.0000000715255855
    vertex 241.2585559801344 121.07617582150753 -4.758693439299577e-15
    vertex 240.52021288036696 120.41075026321295 -4.758693439299577e-15
  endloop
endfacet
facet normal -0.6694741580197926 0.742835346320899 1.4308694915688736e-16
  outer loop
    vertex 241.2585559801344 121.07617582150753 -4.758693439299577e-15
    vertex 240.52021288036696 120.41075026321295 1.0000000715255855
    vertex 241.2585559801344 121.07617582150753 1.000000071525586
  endloop
endfacet
facet normal -0.8389223149434273 0.5442511823505405 1.032972554138589e-16
  outer loop
    vertex 241.79951584024212 121.91002481044872 1.0000000715255861
    vertex 241.2585559801344 121.07617582150753 -4.758693439299577e-15
    vertex 241.2585559801344 121.07617582150753 1.000000071525586
  endloop
endfacet
facet normal -0.8389223149434273 0.5442511823505405 1.032972554138589e-16
  outer loop
    vertex 241.2585559801344 121.07617582150753 -4.758693439299577e-15
    vertex 241.79951584024212 121.91002481044872 1.0000000715255861
    vertex 241.79951584024212 121.91002481044872 -4.758693439299577e-15
  endloop
endfacet
facet normal -0.9511993019491289 0.3085771993707407 5.646802435475973e-17
  outer loop
    vertex 242.10622693985442 122.85547179890477 1.000000071525586
    vertex 241.79951584024212 121.91002481044872 -4.758693439299577e-15
    vertex 241.79951584024212 121.91002481044872 1.0000000715255861
  endloop
endfacet
facet normal -0.9511993019491289 0.3085771993707407 5.646802435475973e-17
  outer loop
    vertex 241.79951584024212 121.91002481044872 -4.758693439299577e-15
    vertex 242.10622693985442 122.85547179890477 1.000000071525586
    vertex 242.10622693985442 122.85547179890477 -4.758693439299577e-15
  endloop
endfacet
facet normal -0.9986536278467603 0.05187419000335976 5.790590717399587e-18
  outer loop
    vertex 242.15778742419957 123.84808613642971 1.0000000715255855
    vertex 242.10622693985442 122.85547179890477 -4.758693439299577e-15
    vertex 242.10622693985442 122.85547179890477 1.000000071525586
  endloop
endfacet
facet normal -0.9986536278467603 0.05187419000335976 5.790590717399587e-18
  outer loop
    vertex 242.10622693985442 122.85547179890477 -4.758693439299577e-15
    vertex 242.15778742419957 123.84808613642971 1.0000000715255855
    vertex 242.15778742419957 123.84808613642971 -4.758693439299577e-15
  endloop
endfacet
facet normal -0.9780513587178604 -0.20836395971987917 -4.528146211165748e-17
  outer loop
    vertex 241.95068353144413 124.82022279565594 1.0000000715255848
    vertex 242.15778742419957 123.84808613642971 -4.758693439299577e-15
    vertex 242.15778742419957 123.84808613642971 1.0000000715255855
  endloop
endfacet
facet normal -0.9780513587178604 -0.20836395971987917 -4.528146211165748e-17
  outer loop
    vertex 242.15778742419957 123.84808613642971 -4.758693439299577e-15
    vertex 241.95068353144413 124.82022279565594 1.0000000715255848
    vertex 241.95068353144413 124.82022279565594 -4.758693439299577e-15
  endloop
endfacet
facet normal -0.8907965051699755 -0.45440244979198563 -9.326765809985051e-17
  outer loop
    vertex 241.4990290497571 125.70563226916413 1.000000071525584
    vertex 241.95068353144413 124.82022279565594 -4.758693439299577e-15
    vertex 241.95068353144413 124.82022279565594 1.0000000715255848
  endloop
endfacet
facet normal -0.8907965051699755 -0.45440244979198563 -9.326765809985051e-17
  outer loop
    vertex 241.95068353144413 124.82022279565594 -4.758693439299577e-15
    vertex 241.4990290497571 125.70563226916413 1.000000071525584
    vertex 241.4990290497571 125.70563226916413 -4.758693439299577e-15
  endloop
endfacet
facet normal -0.7428353413329335 -0.6694741635543409 -1.3489781726070006e-16
  outer loop
    vertex 240.8336034859614 126.44397536397385 1.0000000715255828
    vertex 241.4990290497571 125.70563226916413 -4.758693439299577e-15
    vertex 241.4990290497571 125.70563226916413 1.000000071525584
  endloop
endfacet
facet normal -0.7428353413329335 -0.6694741635543409 -1.3489781726070006e-16
  outer loop
    vertex 241.4990290497571 125.70563226916413 -4.758693439299577e-15
    vertex 240.8336034859614 126.44397536397385 1.0000000715255828
    vertex 240.8336034859614 126.44397536397385 -4.758693439299577e-15
  endloop
endfacet
facet normal -0.7709821921398344 -0.6368567024089923 -1.2860943936118072e-16
  outer loop
    vertex 226.49881121960883 143.79775294624082 1.0000000715255675
    vertex 240.8336034859614 126.44397536397385 -4.758693439299577e-15
    vertex 240.8336034859614 126.44397536397385 1.0000000715255828
  endloop
endfacet
facet normal -0.7709821921398344 -0.6368567024089923 -1.2860943936118072e-16
  outer loop
    vertex 240.8336034859614 126.44397536397385 -4.758693439299577e-15
    vertex 226.49881121960883 143.79775294624082 1.0000000715255675
    vertex 226.49881121960883 143.79775294624082 -2.1678492334586962e-14
  endloop
endfacet
facet normal -0.6749630308809175 -0.7378515480393367 -1.4804127689859508e-16
  outer loop
    vertex 226.49881121960883 143.79775294624082 1.0000000715255675
    vertex 225.88908345088478 144.35551243578016 -1.6038559369491168e-14
    vertex 226.49881121960883 143.79775294624082 -2.1678492334586962e-14
  endloop
endfacet
facet normal -0.6749630308809175 -0.7378515480393367 -1.4804127689859508e-16
  outer loop
    vertex 225.88908345088478 144.35551243578016 -1.6038559369491168e-14
    vertex 226.49881121960883 143.79775294624082 1.0000000715255675
    vertex 225.88908345088478 144.35551243578016 1.000000071525572
  endloop
endfacet
facet normal -0.47410131627781055 -0.8804702958667303 -1.751936410398564e-16
  outer loop
    vertex 225.88908345088478 144.35551243578016 1.000000071525572
    vertex 225.16150187928932 144.74728871990038 -1.0398626404395372e-14
    vertex 225.88908345088478 144.35551243578016 -1.6038559369491168e-14
  endloop
endfacet
facet normal -0.47410131627781055 -0.8804702958667303 -1.751936410398564e-16
  outer loop
    vertex 225.16150187928932 144.74728871990038 -1.0398626404395372e-14
    vertex 225.88908345088478 144.35551243578016 1.000000071525572
    vertex 225.16150187928932 144.74728871990038 1.0000000715255766
  endloop
endfacet
facet normal -0.24446850935583175 -0.9696572321874044 -1.9171428523649143e-16
  outer loop
    vertex 225.16150187928932 144.74728871990038 1.0000000715255766
    vertex 224.36022018220567 144.94930664495442 -1.0398626404395372e-14
    vertex 225.16150187928932 144.74728871990038 -1.0398626404395372e-14
  endloop
endfacet
facet normal -0.24446850935583175 -0.9696572321874044 -1.9171428523649143e-16
  outer loop
    vertex 224.36022018220567 144.94930664495442 -1.0398626404395372e-14
    vertex 225.16150187928932 144.74728871990038 1.0000000715255766
    vertex 224.36022018220567 144.94930664495442 1.0000000715255808
  endloop
endfacet
facet normal -8.386329402284606e-31 -1.0 -1.9660064534655955e-16
  outer loop
    vertex 224.36022018220567 144.94930664495442 1.0000000715255808
    vertex 223.53386456860795 144.94930664495442 -4.758693439299577e-15
    vertex 224.36022018220567 144.94930664495442 -1.0398626404395372e-14
  endloop
endfacet
facet normal -8.386329402284606e-31 -1.0 -1.9660064534655955e-16
  outer loop
    vertex 223.53386456860795 144.94930664495442 -4.758693439299577e-15
    vertex 224.36022018220567 144.94930664495442 1.0000000715255808
    vertex 223.53386456860795 144.94930664495442 1.0000000715255843
  endloop
endfacet
facet normal 0.24446850935578038 -0.9696572321874172 -1.895561899895162e-16
  outer loop
    vertex 223.53386456860795 144.94930664495442 1.0000000715255843
    vertex 222.7325828715243 144.7472887199004 -4.758693439299577e-15
    vertex 223.53386456860795 144.94930664495442 -4.758693439299577e-15
  endloop
endfacet
facet normal 0.24446850935578038 -0.9696572321874172 -1.895561899895162e-16
  outer loop
    vertex 222.7325828715243 144.7472887199004 -4.758693439299577e-15
    vertex 223.53386456860795 144.94930664495442 1.0000000715255843
    vertex 222.7325828715243 144.7472887199004 1.0000000715255868
  endloop
endfacet
facet normal 0.47410131627781055 -0.8804702958667303 -1.710084157118944e-16
  outer loop
    vertex 222.7325828715243 144.7472887199004 1.0000000715255868
    vertex 222.00500129992884 144.3555124357802 8.81239525796218e-16
    vertex 222.7325828715243 144.7472887199004 -4.758693439299577e-15
  endloop
endfacet
facet normal 0.47410131627781055 -0.8804702958667303 -1.710084157118944e-16
  outer loop
    vertex 222.00500129992884 144.3555124357802 8.81239525796218e-16
    vertex 222.7325828715243 144.7472887199004 1.0000000715255868
    vertex 222.00500129992884 144.3555124357802 1.0000000715255883
  endloop
endfacet
facet normal 0.6749630308809472 -0.7378515480393095 -1.4208290413038257e-16
  outer loop
    vertex 222.00500129992884 144.3555124357802 1.0000000715255883
    vertex 221.3952735312048 143.79775294624082 8.81239525796218e-16
    vertex 222.00500129992884 144.3555124357802 8.81239525796218e-16
  endloop
endfacet
facet normal 0.6749630308809472 -0.7378515480393095 -1.4208290413038257e-16
  outer loop
    vertex 221.3952735312048 143.79775294624082 8.81239525796218e-16
    vertex 222.00500129992884 144.3555124357802 1.0000000715255883
    vertex 221.3952735312048 143.79775294624082 1.000000071525589
  endloop
endfacet
facet normal 0.7607061785598583 -0.64909637951606 -1.2425512322555737e-16
  outer loop
    vertex 221.3952735312048 143.79775294624082 8.81239525796218e-16
    vertex 206.65438963012332 126.52222682276044 1.0000000715255855
    vertex 206.65438963012332 126.52222682276044 -4.758693439299577e-15
  endloop
endfacet
facet normal 0.7607061785598583 -0.64909637951606 -1.2425512322555737e-16
  outer loop
    vertex 206.65438963012332 126.52222682276044 1.0000000715255855
    vertex 221.3952735312048 143.79775294624082 8.81239525796218e-16
    vertex 221.3952735312048 143.79775294624082 1.000000071525589
  endloop
endfacet
facet normal 0.7320416751416426 -0.6812598519330328 -1.3070500351214288e-16
  outer loop
    vertex 206.65438963012332 126.52222682276044 -4.758693439299577e-15
    vertex 205.97724965429632 125.79461212360671 1.0000000715255881
    vertex 205.97724965429632 125.79461212360671 8.81239525796218e-16
  endloop
endfacet
facet normal 0.7320416751416426 -0.6812598519330328 -1.3070500351214288e-16
  outer loop
    vertex 205.97724965429632 125.79461212360671 1.0000000715255881
    vertex 206.65438963012332 126.52222682276044 -4.758693439299577e-15
    vertex 206.65438963012332 126.52222682276044 1.0000000715255855
  endloop
endfacet
facet normal 0.8834209842832025 -0.4685801580606012 -8.82238726993385e-17
  outer loop
    vertex 205.97724965429632 125.79461212360671 8.81239525796218e-16
    vertex 205.51150320526975 124.91653357216225 1.0000000715255901
    vertex 205.51150320526975 124.91653357216225 8.81239525796218e-16
  endloop
endfacet
facet normal 0.8834209842832025 -0.4685801580606012 -8.82238726993385e-17
  outer loop
    vertex 205.51150320526975 124.91653357216225 1.0000000715255901
    vertex 205.97724965429632 125.79461212360671 8.81239525796218e-16
    vertex 205.97724965429632 125.79461212360671 1.0000000715255881
  endloop
endfacet
facet normal 0.9745966132680763 -0.22396750078168948 -3.973043075892226e-17
  outer loop
    vertex 205.51150320526975 124.91653357216225 8.81239525796218e-16
    vertex 205.28889013386237 123.94783077061467 1.000000071525591
    vertex 205.28889013386237 123.94783077061467 8.81239525796218e-16
  endloop
endfacet
facet normal 0.9745966132680763 -0.22396750078168948 -3.973043075892226e-17
  outer loop
    vertex 205.28889013386237 123.94783077061467 1.000000071525591
    vertex 205.51150320526975 124.91653357216225 8.81239525796218e-16
    vertex 205.51150320526975 124.91653357216225 1.0000000715255901
  endloop
endfacet
facet normal 0.9993550936558095 0.03590817155172514 1.147057438007846e-17
  outer loop
    vertex 205.28889013386237 123.94783077061467 8.81239525796218e-16
    vertex 205.3245811530051 122.95451921403226 1.0000000715255908
    vertex 205.3245811530051 122.95451921403226 8.81239525796218e-16
  endloop
endfacet
facet normal 0.9993550936558095 0.03590817155172514 1.147057438007846e-17
  outer loop
    vertex 205.3245811530051 122.95451921403226 1.0000000715255908
    vertex 205.28889013386237 123.94783077061467 8.81239525796218e-16
    vertex 205.28889013386237 123.94783077061467 1.000000071525591
  endloop
endfacet
facet normal 0.9560091759232607 0.29333676133503644 6.18898788311144e-17
  outer loop
    vertex 205.3245811530051 122.95451921403226 8.81239525796218e-16
    vertex 205.6161439787257 122.00429144347123 1.00000007152559
    vertex 205.6161439787257 122.00429144347123 8.81239525796218e-16
  endloop
endfacet
facet normal 0.9560091759232607 0.29333676133503644 6.18898788311144e-17
  outer loop
    vertex 205.6161439787257 122.00429144347123 1.00000007152559
    vertex 205.3245811530051 122.95451921403226 8.81239525796218e-16
    vertex 205.3245811530051 122.95451921403226 1.0000000715255908
  endloop
endfacet
facet normal 0.8475128127314205 0.5307749355951884 1.0809149031765193e-16
  outer loop
    vertex 205.6161439787257 122.00429144347123 8.81239525796218e-16
    vertex 206.14370908628152 121.16190391116957 1.0000000715255877
    vertex 206.14370908628152 121.16190391116957 8.81239525796218e-16
  endloop
endfacet
facet normal 0.8475128127314205 0.5307749355951884 1.0809149031765193e-16
  outer loop
    vertex 206.14370908628152 121.16190391116957 1.0000000715255877
    vertex 205.6161439787257 122.00429144347123 8.81239525796218e-16
    vertex 205.6161439787257 122.00429144347123 1.00000007152559
  endloop
endfacet
facet normal 0.6812598519330573 0.73204167514162 1.4692684536868243e-16
  outer loop
    vertex 206.14370908628152 121.16190391116957 8.81239525796218e-16
    vertex 206.87132378543527 120.48476393534251 1.0000000715255846
    vertex 206.87132378543527 120.48476393534251 -4.758693439299577e-15
  endloop
endfacet
facet normal 0.6812598519330573 0.73204167514162 1.4692684536868243e-16
  outer loop
    vertex 206.87132378543527 120.48476393534251 1.0000000715255846
    vertex 206.14370908628152 121.16190391116957 8.81239525796218e-16
    vertex 206.14370908628152 121.16190391116957 1.0000000715255877
  endloop
endfacet
facet normal 0.4685801580606554 0.8834209842831737 1.7574937871592122e-16
  outer loop
    vertex 206.87132378543527 120.48476393534251 -4.758693439299577e-15
    vertex 207.74940233687968 120.01901748631589 1.0000000715255812
    vertex 207.74940233687968 120.01901748631589 -1.0398626404395372e-14
  endloop
endfacet
facet normal 0.4685801580606554 0.8834209842831737 1.7574937871592122e-16
  outer loop
    vertex 207.74940233687968 120.01901748631589 1.0000000715255812
    vertex 206.87132378543527 120.48476393534251 -4.758693439299577e-15
    vertex 206.87132378543527 120.48476393534251 1.0000000715255846
  endloop
endfacet
facet normal 0.22396750078163644 0.9745966132680884 1.9259488234326113e-16
  outer loop
    vertex 207.74940233687968 120.01901748631589 1.0000000715255812
    vertex 208.7181051384273 119.79640441490857 -1.0398626404395372e-14
    vertex 207.74940233687968 120.01901748631589 -1.0398626404395372e-14
  endloop
endfacet
facet normal 0.22396750078163644 0.9745966132680884 1.9259488234326113e-16
  outer loop
    vertex 208.7181051384273 119.79640441490857 -1.0398626404395372e-14
    vertex 207.74940233687968 120.01901748631589 1.0000000715255812
    vertex 208.7181051384273 119.79640441490857 1.0000000715255772
  endloop
endfacet
facet normal -0.03590817155181744 0.9993550936558063 1.9631536301699353e-16
  outer loop
    vertex 208.7181051384273 119.79640441490857 -1.0398626404395372e-14
    vertex 209.71141669500966 119.8320954340514 1.0000000715255735
    vertex 209.71141669500966 119.8320954340514 -1.6038559369491168e-14
  endloop
endfacet
facet normal -0.03590817155181744 0.9993550936558063 1.9631536301699353e-16
  outer loop
    vertex 209.71141669500966 119.8320954340514 1.0000000715255735
    vertex 208.7181051384273 119.79640441490857 -1.0398626404395372e-14
    vertex 208.7181051384273 119.79640441490857 1.0000000715255772
  endloop
endfacet
facet normal -0.2933367613349695 0.9560091759232813 1.8665727612759936e-16
  outer loop
    vertex 209.71141669500966 119.8320954340514 -1.6038559369491168e-14
    vertex 210.6616444655708 120.12365825977193 1.0000000715255695
    vertex 210.6616444655708 120.12365825977193 -2.1678492334586962e-14
  endloop
endfacet
facet normal -0.2933367613349695 0.9560091759232813 1.8665727612759936e-16
  outer loop
    vertex 210.6616444655708 120.12365825977193 1.0000000715255695
    vertex 209.71141669500966 119.8320954340514 -1.6038559369491168e-14
    vertex 209.71141669500966 119.8320954340514 1.0000000715255735
  endloop
endfacet
facet normal -0.5307749355952088 0.8475128127314075 1.6427880433583443e-16
  outer loop
    vertex 210.6616444655708 120.12365825977193 1.0000000715255695
    vertex 211.5040319978724 120.65122336732777 -2.1678492334586962e-14
    vertex 210.6616444655708 120.12365825977193 -2.1678492334586962e-14
  endloop
endfacet
facet normal -0.5307749355952088 0.8475128127314075 1.6427880433583443e-16
  outer loop
    vertex 211.5040319978724 120.65122336732777 -2.1678492334586962e-14
    vertex 210.6616444655708 120.12365825977193 1.0000000715255695
    vertex 211.5040319978724 120.65122336732777 1.0000000715255661
  endloop
endfacet
facet normal -0.7607061785598578 0.6490963795160606 1.242551232255575e-16
  outer loop
    vertex 220.1452423688008 130.7782589306776 1.0000000715255632
    vertex 211.5040319978724 120.65122336732777 -2.1678492334586962e-14
    vertex 211.5040319978724 120.65122336732777 1.0000000715255661
  endloop
endfacet
facet normal -0.7607061785598578 0.6490963795160606 1.242551232255575e-16
  outer loop
    vertex 211.5040319978724 120.65122336732777 -2.1678492334586962e-14
    vertex 220.1452423688008 130.7782589306776 1.0000000715255632
    vertex 220.1452423688008 130.7782589306776 -2.7318425299682758e-14
  endloop
endfacet
endsolid Template - broadsword logo
